<?xml version="1.0" encoding="utf-8"?>
<!-- Generator: Adobe Illustrator 16.0.3, SVG Export Plug-In . SVG Version: 6.00 Build 0)  -->
<!DOCTYPE svg PUBLIC "-//W3C//DTD SVG 1.1//EN" "http://www.w3.org/Graphics/SVG/1.1/DTD/svg11.dtd">
<svg version="1.1" id="Layer_1" xmlns="http://www.w3.org/2000/svg" xmlns:xlink="http://www.w3.org/1999/xlink" x="0px" y="0px"
	 width="394.142px" height="853.727px" viewBox="0 0 394.142 853.727" enable-background="new 0 0 394.142 853.727"
	 xml:space="preserve">
<g>
	<defs>
		<rect id="SVGID_1_" width="394.142" height="853.727"/>
	</defs>
	<clipPath id="SVGID_2_">
		<use xlink:href="#SVGID_1_"  overflow="visible"/>
	</clipPath>
	<path clip-path="url(#SVGID_2_)" fill="#FFFFFF" d="M36.901,240.937l-0.051-1.01l-2.949-58.24c0,0,3.25-43.5,14.25-56.25
		s21.5-47.25,65.25-59.75s57.5-5.75,57.5-5.75l31.5-18.75l36.5-12l17.75-0.25l-14,14.5l-7.5,8.75l28,11l31.25,8.75l28,17
		c0,0,33.25,28.5,40,37.5s28.543,42.981,27.25,58.5c-0.25,3-29.5-16.5-28.75-16.5s16,55,16,55l6.5,27l-5.75,33.25l-12.5-29.75
		l-23.25-41.25l-8,0.25l6.75,25.75l15.5,59l4.5,25.25l-26.75,41l-14.75,13.75l-11.75,8l-9.5,13.75l0.5,11l11.75,42.5l3.25,16
		l-14.25,18l-7,16.5l-22.25,14l-5.75,11.5l3,17l6.5,19.75l-29.75,204l1,8.75l6.75,10l22.25,14.25l10.25,17.5l-1.75,17.75
		l-10.75,10.25c0,0-26,1.5-26,2.25s-26.75-13.75-26.75-13.75l-30.5-16.25l-2-13l5.75-34l-16.25-12.75l-19-23l-8-19l5-14.25l14.25-23
		l17.5-16.25l10.5-19.75l-61.5-66.75l2.75-18.5l13.75-30.75l0.25-9.25l-10.5,1.75l-13-7l-7-13l-5.25-10.5l-14.5-15.75l0.75-11.25
		l28.75-59.5l-6.75-7.25l-13.25-14.5l-14.75-6.25l-29-21l-18-24.25l-13-35.5l-10.25-1.5l-14-9.25l-7-13.25l1.5-18l10.5-8.5
		L36.901,240.937z"/>
	<path clip-path="url(#SVGID_2_)" d="M172.451,236.165c1.566-0.955,2.963-1.843,4.396-2.672c3.605-2.087,7.299-3.447,11.196-0.739
		c3.904,2.711,3.826,6.833,3.347,10.823c-1.307,10.885-6.753,20.072-12.499,29.067c-1.932,3.026-4.665,3.439-7.689,1.273
		c-8.318-5.959-14.725-13.311-17.994-23.248c-1.819-5.531-1.782-10.416,2.641-14.694c4.426-4.281,9.076-2.989,13.807-0.656
		C170.242,235.607,170.92,235.71,172.451,236.165"/>
	<path clip-path="url(#SVGID_2_)" d="M227.634,361.995c-0.229,1.624-0.775,3.227-1.354,4.773
		c-1.997,5.344-4.06,11.165-10.622,11.864c-7.22,0.768-10.25-4.962-12.997-10.403c-6.505-12.881-10.459-26.481-11.238-40.932
		c-0.124-2.308-0.418-4.792,0.267-6.904c0.629-1.938,2.048-4.415,3.898-4.96c2.637-0.777,3.474,1.079,4.817,2.253
		c1.71,1.496,2.722,3.794,4.437,5.281c4.706,4.078,7.825,3.803,11.793-0.911c1.482-1.761,2.259-4.217,3.943-5.678
		c1.785-1.547,4.728-3.592,6.326-3.03c1.747,0.613,3.371,3.887,3.573,6.134c0.502,5.591,0.165,11.256,0.165,16.891
		C230.78,336.398,228.834,353.487,227.634,361.995"/>
	<path clip-path="url(#SVGID_2_)" d="M248.962,273.958c-4.478-0.354-10.474-18.557-14.893-27.256c-1.116-2.2-1.07-5.196-0.932-7.793
		c0.472-8.872,5.711-11.899,14.098-8.364c0.893,0.375,1.76,0.808,2.875,1.324c1.394-0.796,2.744-1.738,4.225-2.384
		c9.062-3.955,14.134-0.251,13.021,9.717c-0.322,2.891-1.304,5.817-2.523,8.478C261.941,253.987,253.563,274.32,248.962,273.958"/>
	<path clip-path="url(#SVGID_2_)" d="M196.765,284.209c-3.78-6.439,6.548-28.766,17.741-32.049
		c9.388-2.753,19.639,5.07,18.217,14.977c-1.013,7.065-4.4,13.794-6.774,20.656c-0.207,0.598-2.131,4.311-6.515,2.62
		c-0.813-0.167-1.856-2.851-1.564-4.112c0.967-4.173,2.4-8.248,3.822-12.303c2.719-7.756,2.493-12.1-1.294-13.241
		c-5.712-1.723-8.504,2.787-11.109,6.465c-2.45,3.461-4.064,7.513-6.048,11.306C201.947,281,199.327,288.574,196.765,284.209"/>
	<path clip-path="url(#SVGID_2_)" d="M393.156,181.937c-3.005-9.485-5.662-19.287-10.252-28.022
		c-9.317-17.729-20.668-34.278-35.37-48.087C318.711,78.755,286.96,56.842,246.702,50.49c-2.02-0.319-4.538-0.45-6.718-1.22
		c5.021-9.401,23-15.5,23.699-21.501c0.353-3.025-9.649-2.259-13.388-2.35c-21.646-0.525-41.353,5.708-59.349,17.625
		c-1.914,1.267-4.003,2.271-6.131,3.464c3.967-6.568,8.592-12.081,10.855-18.434c4.278-12.008-2.573-23.188-15.288-27.016
		c-12.413-3.738-25.566,2.764-28.986,14.327c-1.746,5.904-0.726,10.535,3.64,13.325c1.344,0.86,4.476,1.885,6.071,0.134
		c3.709-4.074-6.791-6.907-1.374-14.367c4.423-7.117,14.145-9.058,22.09-4.41c6.65,3.889,8.428,11.458,4.273,19.155
		c-1.251,2.317-3.116,4.298-4.665,6.458c-4.365,6.084-8.712,12.181-13.952,19.511c-12.152-2.223-25.961-1.114-39.661,2.316
		c-32.979,8.26-60.511,24.268-77.611,54.839c-16.068,28.727-22.72,59.474-19.292,92.376c1.09,10.466,1.211,21.032,1.767,31.404
		c-22.082,5.069-31.996,14.069-32.647,28.908c-0.396,9.033,2.484,16.964,7.282,24.456c6.174,9.64,16.851,9.375,26.122,11.63
		c0.447,1.868,0.784,3.145,1.058,4.435c8.758,41.344,33.391,68.59,73.129,82.485c1.796,0.629,3.685,1.61,4.973,2.959
		c4.559,4.775,8.875,9.781,13.278,14.693c-2.171,4.53-4.003,8.441-5.911,12.315c-6.471,13.142-13.156,26.182-19.405,39.429
		c-6.558,13.901-4.587,22.344,6.325,33.007c3.474,3.395,6.686,7.379,8.918,11.666c6.184,11.878,14.81,20.381,28.293,23.198
		c0.921,0.191,1.744,0.852,3.763,1.879c-8.544,16.611-15.151,33.085-19.39,50.663c-3.58,14.849-2.735,29.019,1.242,43.344
		c2.899,10.445,9.469,18.118,18.458,23.973c11.207,7.3,22.871,12.234,36.592,8.188c0.186-0.056,0.499,0.318,1.592,1.068
		c-7.241,9.422-14.053,19.185-21.81,28.127c-7.796,8.99-13.651,18.955-17.206,30.12c-1.321,4.151-1.379,9.307-0.243,13.527
		c3.817,14.179,11.9,25.845,23.085,35.379c5.805,4.948,11.505,10.019,17.034,14.845c-1.496,9.527-2.362,18.506-4.413,27.206
		c-2.474,10.497,0.29,18.454,9.578,23.715c12.427,7.038,25.353,13.23,37.543,20.642c12.921,7.854,26.185,6.423,39.566,2.966
		c15.378-3.971,22.944-17.854,19.259-33.112c-1.907-7.892-5.97-14.086-12.398-18.697c-8.593-6.163-17.396-12.028-26.326-18.172
		c0-1.777-0.188-3.777,0.027-5.733c3.144-28.539,9.478-56.426,17.617-83.906c2.454-8.287,6.558-16.144,8.438-24.526
		c2.683-11.966,8.675-21.371,17.904-29.088c8.191-6.847,11.952-16.718,16.786-25.752c1.602-2.992,1.69-7.161,1.435-10.717
		c-1.092-15.197-12.75-28.77-27.552-32.653c-2.219-0.583-4.414-1.249-5.693-1.611c-2.635-7.72-5.043-14.561-7.296-21.45
		c-1.341-4.102-2.846-8.214-3.558-12.443c-1.349-8.005,1.604-13.062,9.331-16.134c12.442-4.948,21.181-13.31,26.143-25.903
		c1.646-4.181,4.235-8.392,7.465-11.467c6.038-5.748,7.705-12.103,5.447-19.875c-4.271-14.694-7.744-29.678-12.987-44.015
		c-3.346-9.151-3.479-16.568,3.686-23.38c2.298-2.184,4.929-4.042,7.528-5.875c2.426-1.711,5.412-2.791,7.467-4.837
		c16.147-16.079,30.665-33.385,38.916-55.026c1.265-3.315,2.18-7.157,1.833-10.612c-0.863-8.593-1.935-17.257-4.021-25.62
		c-5.402-21.635-11.411-43.118-17.12-64.677c-0.355-1.341-0.218-2.812-0.311-4.224c6.975,8.968,12.906,18.177,17.575,27.987
		c5.278,11.09,9.373,22.74,14.097,34.099c1.084,2.608,3.719,9.303,7.312,4.974c1.991-2.398,3.81-17.516,4.78-26.605
		c1.725-16.173-1.69-31.858-6.517-47.177c-3.599-11.423-7.918-22.618-11.809-33.952c-0.648-1.889-0.741-3.968-1.091-5.96
		c0.604-0.394,13.103,8.836,18.411,14.179c2.505,2.521,6.417,6.877,9.033,2.303C394.737,188.783,394.093,184.896,393.156,181.937
		 M249.817,31.437c-1.833,4.667-14.582,12.309-19.168,17.164c-1.001,1.061-2.938,1.76-4.436,1.747
		c-14.277-0.118-28.292,1.19-41.82,6.752C200.955,41.185,251.664,26.737,249.817,31.437 M40.188,163.555
		c3.761-18.822,10.365-36.481,20.714-52.667c15.225-23.811,38.095-36.613,64.457-44.102c11.889-3.377,24.018-5.1,36.513-4.52
		c5.415,0.251,10.02,1.797,13.467,5.444c5.99,6.335,9.066,14.25,11.411,23.725c-4.871-0.285-8.47-0.303-12.018-0.735
		c-26.812-3.271-49.862,5.294-69.951,22.56c-8.245,7.087-13.848,16.249-16.873,26.709c-4.897,16.938-9.744,33.9-14.073,50.987
		c-4.241,16.743-12.412,30.753-26.257,41.24c-1.521,1.152-5.285,2.632-7.427,3.741c0-2.333-0.176-4.155-0.22-5.625
		C39.256,208.061,35.74,185.812,40.188,163.555 M111.563,364.208c-2.473,3.406-3.807,7.638-6.087,12.463
		c-38.044-15.61-56.633-42.365-65.325-83.401c-1.017-4.8-8.856-3.272-12.483-3.312c-11.017-0.12-16.694-8.171-18.935-20.91
		c-1.578-8.96,3.712-17.096,13.247-21.083c3.042-1.272,6.452-2.858,9.549-2.596c13.289,1.123,21.759-6.913,29.771-15.324
		c10.579-11.104,16.616-24.595,20.047-39.614c3.555-15.557,8.084-30.911,12.68-46.205c5.895-19.607,19.81-31.653,38.083-39.719
		c18.782-8.288,37.882-9.293,57.534-4.215c0.644,0.166,1.295,0.449,1.94,0.443c24.358-0.212,38.468,15.341,49.319,33.933
		c22.341,38.28,35.149,79.741,37.099,124.2c0.626,14.267,0.085,28.587,0.081,42.882c-0.003,11.624-0.265,28.257-0.265,40.688
		c-4.069,2.863-9.647,0.723-13.717,5.203c-3.627,3.991-5.799,9.583-7.682,14.805c-1.836,5.089-4.398,10.29,0.522,15.864
		c2.774,3.144,0.682,11.502-2.625,14.295c-15.87,13.403-61,18.333-68.666,9.333c-2.298-2.697,0.333-6.833-4.408-18.681
		c3.867-10.976-5.304-25.596-18.015-27.349c-4.384-0.605-8.599-2.516-12.983-2.997c-3.765-0.414-7.684,0.168-11.492,0.65
		c-6.196,0.783-12.586,1.145-18.446,3.057C116.893,357.731,113.804,361.121,111.563,364.208 M259.318,399.604
		c-1.069,5.268,1.125,7.545,0.166,10.166c-9.038,24.735-16.789,49.333-19.563,75.304c-17.685,11.778-36.493,14.861-56.609,10.189
		c-3.18-0.738-6.257-2.07-9.248-3.424c-3.453-1.559-4.522-4.274-4.008-8.158c2.574-19.444,4.74-38.943,7.47-58.365
		c0.76-5.411,2.95-10.621,4.528-16.075C210.07,417.44,233.57,414.874,259.318,399.604 M111.282,482.937
		c-7.049-6.811-7.978-11.545-3.784-20.472c7.889-16.789,16.057-33.447,24.353-50.668c6.211,2.145,9.415,6.617,7.973,13.358
		c-3.326,15.551-6.903,31.054-10.775,46.478c-1.51,6.019-4.083,11.77-6.833,19.497C117.486,487.629,114.06,485.621,111.282,482.937
		 M143.732,517.34c-7.785,0.772-17.001-3.463-19.143-15.911c3.433,1.543,8.42,9.69,10.694,4.805
		c1.534-3.297-8.465-5.797,2.825-33.08c4.193-10.132,6.05-21.082,8.934-31.661c4.514-16.561-1.103-29.841-13.306-41.08
		c-5.128-4.723-10.153-9.612-14.757-14.837c-6.988-7.93-4.161-22.806,1.297-21.727c1.845,0.365,0.854,4.661,3.163,5.123
		c5.043,1.009,7.543-11.645,13.132-9.43c3.515,1.394-0.436,7.086,1.706,8.727c5.746,4.397,7.581-16.004,14.707-9.165
		c1.894,1.816-1.586,5.323-0.413,7.827c0.642,1.369,2.573,1.268,3.131,0.971c2.883-1.537,5.042-6.245,9.22-5.573
		c4.828,0.775,8.645,5.514,11.395,9.441c2.24,3.198,0.262,6.508,0,7c-2.304-0.76-7.56-6.404-9.833-4.666
		c-2.833,2.166,1.447,9.082,4.928,12.084c8.09,6.977,8.074,15.399,3.907,23.328c-8.345,15.881-9.412,33.023-11.171,50.211
		c-0.98,9.578-2.663,19.086-4.075,28.618C158.402,499.629,156.379,516.086,143.732,517.34 M158.561,733.726
		c-4.792-6.366-6.95-17.613-3.744-24.456c4.763-10.161,9.667-15.5,16.885-26.638c10.463,11.471,21.449,20.805,30.782,29.138
		c-2.833,3.167-17.5,7-14.297,11.92c4.092,6.286,17.262-12.117,20.84-3.608c2.312,5.499-12.606,10.295-10.206,15.374
		c1.33,2.814,14.211-10.847,17.435-7.972c4.062,3.62-10.133,13.097-6.438,16.786c2.313,2.311,8.425-4.39,12.557-8.418
		c7.049,11.242,15.156,20.9,11.324,34.745c-2.062,7.446-5.404,10.238-13.116,8.62c-7.351-1.543-15.159-3.673-21.28-7.766
		C183.824,761.098,169.913,748.807,158.561,733.726 M251.484,792.27c1.716,1.716-20.135,16.854-14.24,20.023
		c1.814,0.977,3.503-1.628,5.047-2.533c2.574-1.508,4.916-3.527,7.639-4.644c7.007-2.873,13.607-5.994,20.823,1.122
		c7.605,7.499,11.114,15.95,9.166,26.006c-1.146,5.92-6.988,8.867-12.441,10.388c-11.041,3.081-21.834,4.282-32.694-2.312
		c-10.781-6.546-22.343-11.882-33.839-17.148c-7.912-3.624-10.798-8.958-9.426-17.478c1.256-7.803,1.679-15.74,2.544-24.366
		c7.58,2.725,14.392,5.173,21.073,7.576c-0.143,2.825-3.682,6.84-0.459,9.074c1.142,0.791,15.87-9.653,23.03-14.28
		c2.663-1.721,5.502-1.429,4.961,0.84c-1.664,6.983-19.35,14.565-14.585,18.229C230.648,804.741,248.817,789.604,251.484,792.27
		 M269.505,564.536c-26.75-0.656-51.169,7.242-76.023,12.668c-2.917,0.637-6.016,1.139-8.59,2.523
		c-10.891,5.851-21.89,3.949-32.883,0.806c-2.798-0.801-5.617-2.222-7.88-4.039c-3.283-2.636-4.872-6.019-2.967-10.55
		c3.985-9.482,7.65-19.099,11.442-28.661c0.853-2.152,2.218-4.258,2.433-6.474c0.628-6.444-1.003-12.896,4.376-18.772
		c4.08-4.457,6.083-10.815,8.933-16.183c23.909,16.687,47.644,13.433,72.882-0.998c0.239,15.248,7.644,22.705,21.042,25.349
		C256.493,536.328,264.938,549.694,269.505,564.536 M307.17,458.736c1.902,6.945,0.782,12.562-5.266,16.583
		c-5.396,3.588-15.253,11.618-17.681,10.728c-3.696-1.354-2.322-6.02-2.019-7.988c3.261-21.165,1.953-43.219,12.495-65.307
		c1.406,3.705,2.287,5.487,2.764,7.371C300.717,432.989,303.664,445.939,307.17,458.736 M317.412,359.351
		c-0.994,3.771-2.99,7.408-5.151,10.722c-7.802,11.964-16.141,23.587-23.718,35.689c-7.55,12.061-11.17,25.571-12.358,39.693
		c-1.393,16.544-2.616,33.104-3.816,49.664c-0.056,0.775-0.746,5.17,2.383,4.433c4.733-1.114,9.233-6.614,17.821-6.786
		c-4.038,14.174-22.39,23.164-35.015,17.736c-5.368-2.307-7.428-6.815-7.563-11.938c-0.211-7.957-0.646-16.146,0.888-23.863
		c3.695-18.596,8.355-37.006,12.874-55.43c2.081-8.483,3.451-16.636,0.816-25.462c-2.416-8.091,2.913-14.607,7.176-20.94
		c1.956-2.907,8.412-4.749,7.109-8.979c-1.373-4.452-15.299,12.745-18.706,7.715c-2.818-4.161,3.5-15.5,9.617-20.059
		c6.055-2.471,10.05-2.275,14.216,2.892c2.508,3.109,11.167,3.333,8.446-0.164c-3.65-4.692-9.433-5.215-3.612-8.503
		c2.269-1.282,7.449,6.138,11.333,5.167c1.333-0.333-4.5-9.833,3.667-3.5c4.627,3.588,8.701,1.198,12.833,3
		C318.132,351.083,317.937,357.365,317.412,359.351 M350.128,290.292c2.24,10.048,3.736,20.295,4.898,30.529
		c0.341,3.011-1.143,6.504-2.562,9.396c-7.079,14.426-17.199,26.651-29.168,37.939c0.652-2.674,1.49-5.319,1.924-8.028
		c1.281-8.002-3.15-13.709-11.196-14.526c-1.609-0.163-3.432,0.452-4.839-0.099c-3.357-1.31-6.384-3.66-9.812-4.537
		c-3.071-0.786-6.502-0.166-11.097-0.166c-1.259-11.568-2.801-23.006-1.807-34.589c4.201-48.903-1.12-96.454-19.986-142.079
		c-8.441-20.414-18.378-39.84-34.824-55.374c-8.922-8.427-18.987-13.183-31.077-14.125c-2.146-0.168-4.259-0.775-6.388-1.179
		c-0.16-1.038-0.32-2.075-0.481-3.111c3.578-0.987,7.116-2.623,10.741-2.844c12.912-0.783,25.201,1.835,36.522,8.276
		c21.217,12.069,38.126,28.848,52.571,48.303c23.499,31.645,35.481,68.342,46.137,105.582
		C343.531,263.102,347.086,276.649,350.128,290.292 M376.646,236.394c1.993,8.976,1.44,31.372,0.462,34.836
		c-2.976-7.287-4.719-13.384-7.78-18.725c-9.93-17.323-20.3-34.397-30.588-51.514c-6.17-10.267-13.15-20.102-18.632-30.717
		c-11.585-22.433-26.245-42.39-44.327-59.995c-10.165-9.897-21.909-17.408-34.333-23.824c-15.507-8.008-31.916-8.515-49.474-3.334
		c-2.812-5.559-5.598-11.067-8.848-17.491c10.307-4.045,20.124-8.388,30.865-7.026c13.506,1.715,27.243,3.368,40.196,7.303
		c26.757,8.127,48.913,23.737,66.439,45.686c20.656,25.867,34.021,55.545,44.726,86.524
		C369.695,210.685,373.769,223.434,376.646,236.394 M363.422,165.185c-2.572-1.682-4.55-4.703-6.062-7.512
		c-9.12-16.937-16.843-34.73-29.759-49.342c-8.027-9.082-27.632-24.933-35.45-33.394c31,6.167,94.833,78.333,94.333,104.333
		C386.401,183.616,369.492,169.151,363.422,165.185"/>
</g>
</svg>
