<?xml version="1.0" encoding="utf-8"?>
<!-- Generator: Adobe Illustrator 16.0.3, SVG Export Plug-In . SVG Version: 6.00 Build 0)  -->
<!DOCTYPE svg PUBLIC "-//W3C//DTD SVG 1.1//EN" "http://www.w3.org/Graphics/SVG/1.1/DTD/svg11.dtd">
<svg version="1.1" id="Layer_1" xmlns="http://www.w3.org/2000/svg" xmlns:xlink="http://www.w3.org/1999/xlink" x="0px" y="0px"
	 width="384.902px" height="831.705px" viewBox="0 0 384.902 831.705" enable-background="new 0 0 384.902 831.705"
	 xml:space="preserve">
<g>
	<defs>
		<rect id="SVGID_1_" width="384.902" height="831.705"/>
	</defs>
	<clipPath id="SVGID_2_">
		<use xlink:href="#SVGID_1_"  overflow="visible"/>
	</clipPath>
	<path clip-path="url(#SVGID_2_)" fill="#FFFFFF" d="M368.256,286.314l7.5-25l-4.666-20.834l-14.5-44.333c0,0-20-45.333-20-45.833
		s-1.167-9.667-1.167-9.667l13.833,9l20.667,15.5c0,0,4.167,11.833,3.167-2.833c-1-14.667-32.5-52.667-39.667-63.5
		c-7.167-10.834-59.167-39.667-59.167-39.667l-35.833-9.667l4.5-8.333l10.5-9.667l-3.333-6.833l-35.5,5.833l-28.167,17.667
		L159.756,65.98l-17.333,0.834c0,0-29.667,5.166-40,6c-10.333,0.833-32.5,28.166-41.167,31.333
		c-8.666,3.167-17.166,51.5-21.666,53.5c-4.299,1.91-3.167,87.667-3.167,87.667l-11.833-2.667l-13.834,7.667l-5.5,16.833l4.334,16.5
		l20.666,8.333c0,0,4,18.334,5.667,23.5c1.667,5.167,16.5,31.5,30,45.334c13.5,13.833,30,22.333,30,22.333l-25,60.833l6.333,10.834
		l-8.666,33.5l-0.5,10.5l15.166,16l30,16.333v18.167l0.834,9.166l12.5,6.667l4,4.5l-16,178l-19,37.167l6.333,18.5l29.5,22.166
		l13.833,0.334l31.334-18.167l8.5-12.333l-9.334-27.834l-5.333-20.5l10.833-138l25.5-1.833l2,33.667l18.667,108.166l2,37
		l28.833,14.5l39.167,12.834l34.167-10.667l3.333-12l-8.667-25.833l-24.166-13.5l-23.667-12.334l-22.167-141.833l-4.5-34.167
		l9.667-5l2.333-7.833l-3.833-6l2.667-7.167l31.833-14.833l25-20.667l-7.333-39.833l4.166-5.167l-9.5-33.5l-6.166-22.333l3.833-6.5
		l30.667-44.5l14.5-38.5l-1.667-18.167l-6.667-41.666l4.167-5.834L368.256,286.314z M125.59,497.814l-4.834,8.833l-10.833-0.833
		l-12.333-9l3.166-19.334l3.667-13.833l10.667-1.833l14.666,21.333l6.167,2.833l1.5,9.834L125.59,497.814z M265.923,508.147
		l-2.167-3.667l-6.5-8.166l-11.833-0.334l6.333-15l10.834-14.166h0.666l21.167,1.333l1.667,31.5L265.923,508.147z"/>
	<path clip-path="url(#SVGID_2_)" d="M124.937,570.083c-14.154-6.597-16.157-10.378-14.658-26.266
		c0.578-6.129-1.208-8.462-6.844-11.596c-9.004-5.006-17.839-10.34-26.543-15.854c-12.22-7.743-15.957-18.954-12.502-32.766
		c1.778-7.106,3.568-14.21,5.547-21.261c1.119-3.988,1.695-7.305-1.855-10.841c-4.424-4.408-2.799-10.017-0.59-14.988
		c6.614-14.883,13.457-29.664,20.223-44.479c0.682-1.496,1.442-2.955,2.22-4.544c-33.1-21.669-61.168-46.643-63.764-90.261
		c-8.022-2.08-16.69-3.682-21.659-11.951c-3.958-6.586-5.047-13.617-4.285-21.134c1.693-16.705,9.748-23.936,30.368-26.666
		c0-2.463,0.209-5.023-0.031-7.542c-3.097-32.534-0.094-64.447,9.081-95.847c6.289-21.524,18.383-39.154,35.501-53.213
		c15.723-12.912,34.802-17.89,54.539-20.208c7.518-0.882,15.226-0.143,23.436-0.143c2.107-13.892,9.967-23.914,19.615-32.836
		c1.457-1.347,2.884-2.831,3.927-4.5c3.841-6.145,1.908-11.303-5.312-12.533c-4.83-0.825-10.049-0.784-14.874,0.09
		c-8.275,1.498-10.118,4.986-8.473,13.474c0.314,1.619,1.123,3.322,0.853,4.836c-0.52,2.93-2.689,3.828-5.206,2.269
		c-6.21-3.849-7.56-15.63-2.605-21.5c8.115-9.616,30.127-13.038,40.804-6.346c7.019,4.399,10.246,10.957,7.477,18.766
		c-1.811,5.106-5.494,9.681-8.907,14.05c-3.395,4.347-10.475,13.273-10.065,13.824c1.935-0.771,3.988-1.329,5.781-2.347
		c7.817-4.444,15.408-9.308,23.356-13.495c19.639-10.344,41.006-13.245,62.827-13.879c3.011-0.087,6.41-0.203,7.285,3.609
		c0.992,4.32-2.49,5.821-5.555,7.094c-7.404,3.076-14.599,6.347-19.883,14.518c55.454,11.965,96.156,43.472,123.048,91.957
		c8.582,15.47,21.375,51.739,16.682,52.93c-8.651,2.198-21.932-32.632-42.425-40.739c2.621,5.551,4.119,9.505,6.243,13.088
		c9.774,16.485,15.755,34.481,21.321,52.654c3.119,10.188,6.328,20.353,9.185,30.615c1.053,3.781,2.183,7.967,1.585,11.697
		c-1.629,10.173-3.83,20.292-6.553,30.228c-0.729,2.655-3.862,6.022-6.386,6.513c-4.613,0.895-5.411-3.751-6.566-7.224
		c-3.223-9.697-9.711-29.356-12.171-28.626c-2.193,0.651,0.161,4.608,0.642,6.825c3.684,16.95,7.56,33.891,5.159,51.417
		c-0.671,4.892-1.191,10.135-3.347,14.432c-5.952,11.862-12.137,23.696-19.358,34.809c-6.867,10.568-15.037,20.308-22.901,30.2
		c-2.326,2.928-3.063,5.359-1.772,9.024c4.868,13.815,9.115,27.852,14.161,41.598c2.344,6.389,4.263,12.064-2.863,16.461
		c1.701,7.616,3.413,14.73,4.845,21.901c0.845,4.228,1.379,8.53,1.81,12.823c0.576,5.762-1.519,10.328-6.336,13.761
		c-11.658,8.303-22.929,17.164-36.65,22.112c-5.53,1.995-10.771,4.793-16.956,7.593c7.34,11.688-0.479,17.134-8.762,22.924
		c6.336,37.797,12.858,75.495,18.897,113.27c2.838,17.739,5.012,35.6,6.909,53.466c0.59,5.556,2.8,8.67,7.895,9.988
		c4.186,1.082,8.422,1.988,12.652,2.886c11.214,2.376,20.675,7.59,26.854,17.488c4.574,7.325,8.999,14.799,12.756,22.562
		c4.26,8.805,0.117,18.958-8.319,23.835c-10.345,5.98-21.838,7.95-33.258,9.973c-4.448,0.788-9.475,0.425-13.842-0.815
		c-17.959-5.104-35.345-11.756-51.963-20.402c-7.329-3.813-10.926-9.383-10.709-17.583c0.386-14.634-1.556-28.745-4.927-43.2
		c-5.275-22.608-7.193-46-10.545-69.059c-0.902-6.199-2.954-28.4-3.944-35.019c-6.823-0.476-12.978-0.904-19.685-1.372
		c-0.336,1.768,0.227,19.318,0.219,20.864c-0.186,31.436-5.652,62.333-9.68,93.363c-0.727,5.597,0.135,10.226,2.286,15.314
		c3.874,9.167,6.925,18.688,10.22,28.095c2.594,7.405,1.046,14.455-4.915,19.05c-9.691,7.47-19.888,14.41-30.452,20.58
		c-10.76,6.283-22.006,4.155-32.457-1.479c-12.995-7.007-23.011-16.783-27.755-31.344c-2.206-6.77-2.279-13.028,1.413-19.191
		c3.42-5.713,6.869-11.408,10.246-17.146c1.873-3.186,3.162-6.082,1.211-10.204c-1.445-3.055-1.272-7.186-0.895-10.739
		c1.895-17.88,4.329-35.705,6.11-53.595c1.419-14.251,2.74-28.555,3.085-42.858c0.525-21.837,4.669-42.995,10.078-64.008
		C123.86,575.078,124.316,572.816,124.937,570.083 M280.605,293.062c0-5.987,0.338-11.997-0.066-17.957
		c-0.972-14.264-0.857-28.804-3.766-42.692c-6.219-29.695-19.822-56.281-37.636-80.849c-12.631-17.421-26.739-33.131-45.169-44.588
		c-4.52-2.811-8.797-5.816-14.624-5.45c-19.709,1.238-39.187,3.491-56.991,12.902c-18.041,9.537-31.925,22.899-37.377,43.269
		c-2.145,8.015-3.488,16.25-5.127,24.398c-2.229,11.083-3.946,22.291-6.691,33.243c-3.784,15.097-13.624,25.538-27.166,32.824
		c-5.103,2.745-9.543,4.341-15.714,1.659c-8.215-3.572-13.897-0.382-17.766,7.8c-6.121,12.945-0.362,24.13,14.073,27.334
		c7.761,1.722,7.56,1.928,8.765,9.655c1.224,7.846,1.994,16.1,5.091,23.256c9.05,20.909,23.214,38.225,42.398,50.53
		c20.742,13.306,44.561,19.627,68.376,23.9c32.934,5.91,65.649,1.403,97.721-7.697c8.843-2.51,16.289-7.512,23.247-13.21
		c1.819-1.489,3.306-4.315,3.536-6.666C278.059,340.879,281.148,293.09,280.605,293.062 M309.965,452.448
		c-4.162-15.331-8.221-30.293-12.417-45.75c-9.031,4.802-16.993,16.943-25.831,13.284c-11.091-4.593-2.157-20.483-1.536-31.634
		c-28.453,12.966-57.436,16.278-86.801,18.048c-29.959,1.806-57.652-7.733-86.226-17.308c-7.326,18.994-14.324,37.135-21.397,55.466
		c11.375,8.137,22.89,12.143,35.901,13.388c0.321-2.396,0.423-4.042,0.774-5.632c1.975-8.93,5.261-17.279,12.156-23.581
		c1.287-1.177,4.436-2.499,6.024-1.165c1.412,1.186,0.52,3.871-0.074,5.495c-1.48,4.046-3.815,7.79-5.179,11.865
		c-4.851,14.487-2.074,23.495,10.071,32.872c3.488,2.691,5.27,5.792,4.803,10.241c-0.236,2.254-0.042,4.552-0.042,6.693
		c2.254,1.265,4.025,2.162,5.694,3.221c1.967,1.247,3.916,2.542,5.749,3.975c6.727,5.256,7.313,8.831,2.757,16.179
		c-1.163,1.876-3.691,4.075-3.316,5.545c2.372,9.277-3.399,13.396-8.245,15.747c-2.157,5.449-2.638,10.019-5.175,12.312
		c-4.166,3.765-4.936,7.395-3.056,13.064c33.448,8.502,66.991,10.838,101.13-0.669c-1.611-8.192-0.305-10.456,2.528-15.956
		c0.711-1.381-3.986-2.804-3.833-9.5c0.056-2.488,2.95-5.227,2.5-8.167c-0.214-1.398-3.066-1.436-3.834-6.666
		c-0.609-4.147,1.275-4.404,0.834-6.5c-0.437-2.064-2.834-2-3.834-4.834c-1.617-4.582,0.383-8.974,6.192-13.182
		c4.551-3.296,7.962-6.538,6.875-13.065c-0.392-2.354,1.716-5.602,3.505-7.759c11.965-14.421,14.438-30.214,7.678-47.618
		c-0.985-2.537-5.611-8.287-2.726-10.373c2.309-1.669,6.916,2.464,7.888,3.951c3.053,4.68,6.56,9.494,7.893,14.762
		c1.815,7.165,1.783,14.797,2.561,22.379C284.326,463.864,297.249,459.596,309.965,452.448 M279.628,404.514
		c0.418,0.886,1.584,1.562,2.556,1.447c8.481-0.995,13.151-11.085,18.609-17.568c7.694-9.141,14.863-18.836,21.263-28.924
		c6.741-10.625,12.467-21.91,18.337-33.064c4.003-7.607,4.825-15.949,3.386-24.311c-2.481-14.422-5.013-28.852-8.153-43.14
		c-13.243-60.211-41.142-111.689-91.719-148.666c-11.924-8.718-25.84-15.001-39.468-20.969c-6.252-2.738-15.921-9.029-21.15-3.026
		c-3.03,3.479,1.52,6.307,5.11,7.322c12.12,3.423,22.726,9.908,31.586,18.469c9.52,9.196,18.106,19.425,26.519,29.681
		c18.419,22.459,30.36,48.383,39.175,75.842c5.776,17.994,6.197,36.676,6.661,55.334c1.02,41.078-1.092,81.868-11.003,121.963
		C280.557,398.055,278.236,401.572,279.628,404.514 M42.549,236.985c10.495-4.688,17.03-12.013,19.771-22.007
		c3.162-11.523,5.204-23.353,7.755-35.043c2.126-9.744,3.626-19.689,6.602-29.167c3.409-10.857,8.83-21.018,17.41-28.782
		c17.781-16.091,38.454-26.072,62.622-28.164c5.53-0.479,11.036-1.24,17.913-2.026c-2.739-3.995-4.816-6.882-6.741-9.866
		c-4.487-6.95-10.587-10.884-19.088-10.624c-6.614,0.203-13.291-0.226-19.834,0.539c-37.953,4.437-63.668,24.609-77.237,60.43
		c-5.966,15.755-7.958,32.232-10.13,48.74C39.19,199.283,38.784,217.476,42.549,236.985 M176.649,78.538
		c5.869-0.73,10.503-2.137,14.965-1.716c19.659,1.852,37.604,9.558,53.475,20.485c34.018,23.419,60.758,53.682,78.304,91.384
		c7.022,15.088,14.124,29.995,23.225,44.03c6.476,9.99,8.955,14.99,13.806,25.927c1.946,4.387,4.451,17.986,7.334,16.667
		c3.724-1.705,2.434-21.832-0.904-29.767c-3.338-7.932-5.613-16.351-7.889-24.683c-6.629-24.268-17.212-46.832-30.078-68.263
		c-7.167-11.938-14.779-23.951-24.113-34.175c-23.566-25.809-51.961-44.354-86.516-52.514c-15.972-3.77-31.257-1.735-47.626,3.377
		C173.124,73.122,174.868,75.802,176.649,78.538 M294.09,751.814c-3.919-2.737-14.589,11.278-17.512,12.796
		c-2.177,1.13-3.686,6.094-7.069,2.344c-3.586-3.974,16.914-15.474,14.081-18.474c-1.359-1.439-20.917,11.519-21.923,9.397
		c-1.047-2.205,1.704-4.92,3.403-6.412c2.438-2.137,5.787-3.197,8.516-5.059c1.16-0.791,1.73-2.446,2.569-3.708
		c-14.034,6.864-28.701,9.172-43.393,11.248c0.459,7.497,1.365,14.102,1.131,20.665c-0.254,7.133,2.831,11.053,9.233,13.449
		c13.352,4.999,26.619,10.227,39.879,15.471c14.544,5.753,28.157,1.172,41.365-4.274c7.395-3.05,7.89-6.006,4.108-13.435
		c-3.004-5.902-6.582-11.521-10.037-17.186c-3.028-4.965-6.967-11.593-13.739-10.711c-9.071,1.181-20.78,18.054-23.485,15.859
		C275.38,769.049,299.202,755.383,294.09,751.814 M117.541,751.246c-5.167,10.296-10.272,19.586-14.449,29.275
		c-1.427,3.312-1.717,8.062-0.489,11.407c5.588,15.214,17.061,24.239,32.586,28.061c2.752,0.677,5.992,0.171,8.842-0.498
		c12.445-2.919,21.538-11.532,31.242-19.02c3.182-2.455,3.951-6.125,2.803-9.972c-3.4-11.382-6.89-22.737-10.367-34.181
		c-5.334,0.363-13.278,0.521-17.786,0.828c0.971,1.462,5.155,2.266,5.641,2.62c2.478,1.805,5.414,3.72,3.499,7.187
		c-2.056,3.723-5.573,3.264-8.656,1.22c-6.213-4.118-12.671-2.882-19.29-1.531c-1.848,0.376-4.362,0.781-5.87-0.489
		c-0.611-0.514-0.901-1.555-0.634-2.306c1.488-4.189,7.236-5.167,11.918-8.509C129.124,753.742,123.326,752.493,117.541,751.246
		 M222.66,55.75c-0.584,2.426,4.61,1.974,7.008,2.626c39.757,10.832,70.582,34.331,95.276,66.717
		c2.49,3.267,6.112,5.766,9.494,8.231c3.203,2.335,7.027,3.79,10.198,6.196c4.928,3.738,19.62,18.794,22.453,15.794
		c1.95-2.065-11.691-19.715-14.958-24.481c-9.421-13.745-20.804-25.632-33.177-36.926c-15.002-13.695-31.745-24.112-50.313-31.514
		C254.143,56.614,224.09,49.814,222.66,55.75 M289.836,472.962c0,2.615-0.278,4.93,0.058,7.152c0.642,4.246,1.59,8.447,2.486,12.652
		c1.477,6.938,0.788,8.953-5.664,11.672c-6.048,2.55-12.384,4.422-18.538,6.572c-0.78,5.567-1.532,10.937-2.411,17.202
		c2.773-0.68,4.741-0.796,6.352-1.617c9.414-4.809,19.235-9.041,28-14.856c16.034-10.639,15.863-8.932,12.096-26.979
		c-0.742-3.549-0.624-7.268-1.096-10.883c-0.324-2.48-0.984-4.916-1.579-7.789C302.507,468.541,296.304,470.705,289.836,472.962
		 M98.698,467.891c-7.076-2.732-13.345-5.153-19.78-7.638c-2.145,11.353-3.992,21.454-5.981,31.527
		c-1.165,5.9,0.689,10.48,5.641,13.753c7.476,4.94,14.929,9.929,22.582,14.587c3.262,1.986,6.999,3.19,11.304,5.097
		c0.293-5.101,0.51-8.887,0.75-13.051c-3.866-2.12-7.663-4.138-11.398-6.265c-9.483-5.398-10.349-7.112-8.101-17.564
		C95.162,481.61,96.962,474.96,98.698,467.891 M282.278,496.134c-1.195-8.648-2.212-15.987-3.311-23.929
		c-5.38,0.606-9.871,1.112-13.408,1.511c-5.17,6.308-9.688,11.823-15.931,19.439c10.465-3.136,15.359,1.683,18.921,8.711
		C273.374,499.853,277.592,498.091,282.278,496.134 M111.083,466.637c-1.694,1.188-4.913,2.237-5.267,3.898
		c-1.697,7.955-2.618,16.075-3.845,24.339c5.41,2.762,10.044,5.129,15.451,7.89c1.659-8.87,8.841-9.169,16.753-10.905
		c-5.508-3.993-10.286-6.434-13.633-10.16C116.912,477.657,114.613,472.42,111.083,466.637 M246.257,29.314
		c-17.431-2.435-46.873,10.019-52.837,18.091c13.326-0.88,26.848-1.774,41.032-2.71c0.737-1.443,1.624-3.572,2.857-5.476
		C238.733,37.024,250.143,29.856,246.257,29.314 M123.59,513.48c-4.179-0.132-3.799,5.862-3.166,7.667
		c2.566,7.312,18.5,15.542,21.622,6.933C144.257,521.98,126.236,513.564,123.59,513.48 M126.082,502.699
		c-2.825,4.115,18.753,18.256,20.757,9.432C148.423,505.147,131.393,494.961,126.082,502.699 M236.09,509.98
		c0.977,4.396,25.218-2.01,20.875-8.739C252.923,494.98,234.757,503.98,236.09,509.98 M131.509,545.927
		c10.365-4.807-6.712-15.435-12.921-13.684C109.695,534.752,124.924,548.98,131.509,545.927 M258.861,531.098
		c-1.604-1.283-18.044,0.89-18.938,7.55C239.096,544.808,267.306,537.852,258.861,531.098 M240.64,522.842
		c-0.327,0.717,0.159,1.704,0.729,2.25c6.664,6.406,21.841-3.551,19.721-9.777C260.403,513.298,243.074,517.504,240.64,522.842
		 M258.81,548.94c-4.553-3.793-21.719,4.642-15.886,10.04C247.155,562.899,264.777,553.911,258.81,548.94 M122.111,560.684
		c2.313,0.797,4.913,0.596,5.479-0.203c3.53-4.98-9.276-11.913-11.473-7.403C114.703,555.979,119.059,559.631,122.111,560.684"/>
	<path clip-path="url(#SVGID_2_)" d="M121.923,237.98c-0.167-2.833,5.321-3.517,8.083-3.636c23.228-1.007,46.453-2.218,69.692-2.635
		c7.462-0.134,12.052-1.407,14.854-9.338c5.999-16.988,27.181-23.369,46.513-14.115c1.796,0.861,3.812,4.354,3.404,6.076
		c-0.837,3.539-4.056,3.563-7.31,2.354c-3.416-1.269-6.916-2.464-10.483-3.139c-10.124-1.912-19.354,2.132-22.653,11.807
		c-6.218,18.22-8.762,16.01-25.884,15.919c-22.59-0.12-45.18-0.527-67.768-0.887C127.88,240.348,122.044,240.047,121.923,237.98"/>
	<path clip-path="url(#SVGID_2_)" d="M186.214,290.834c-5.963,3.205-6.371-6.02-5.621-9.883c1.299-6.7,4.608-12.409,9.978-16.817
		c4.7-3.859,9.865-5.586,15.746-3.248c5.623,2.235,7.5,7.097,8.415,12.619c1.186,7.153-1.758,13.098-5.729,18.498
		c-0.96,1.305-4.532,2.06-5.918,1.291c-1.359-0.755-2.137-3.834-1.948-5.775c0.214-2.184,2.15-4.149,2.686-6.366
		c0.679-2.814,1.343-5.9,0.857-8.664c-0.73-4.133-4.453-5.701-7.388-2.787c-3.375,3.352-5.754,7.827-8.06,12.088
		C187.768,284.494,189.117,289.273,186.214,290.834"/>
	<path clip-path="url(#SVGID_2_)" d="M121.726,778.391c-0.605-1.761,1.054-3.121,1.909-3.828c7.536-6.221,24.291-6.867,31.697-0.917
		c1.662,1.335,3.9,4.282,2.975,6.508c-0.809,1.946-4.477,2.736-5.792,2.123c-9.097-4.246-18.406-4.154-27.948-2.521
		C124.05,779.844,122.338,780.171,121.726,778.391"/>
	<path clip-path="url(#SVGID_2_)" d="M147.923,260.314c-2.209,0-4,1.79-4,4c0,2.209,1.791,4,4,4s4-1.791,4-4
		C151.923,262.104,150.132,260.314,147.923,260.314"/>
	<path clip-path="url(#SVGID_2_)" d="M236.756,260.314c-2.209,0-4,1.79-4,4c0,2.209,1.791,4,4,4c2.21,0,4-1.791,4-4
		C240.756,262.104,238.966,260.314,236.756,260.314"/>
	<path clip-path="url(#SVGID_2_)" d="M194.84,331.147c-2.716,0-4.917,2.611-4.917,5.833s2.201,5.834,4.917,5.834
		s4.916-2.612,4.916-5.834S197.556,331.147,194.84,331.147"/>
</g>
</svg>
