<?xml version="1.0" encoding="utf-8"?>
<!-- Generator: Adobe Illustrator 16.0.3, SVG Export Plug-In . SVG Version: 6.00 Build 0)  -->
<!DOCTYPE svg PUBLIC "-//W3C//DTD SVG 1.1//EN" "http://www.w3.org/Graphics/SVG/1.1/DTD/svg11.dtd">
<svg version="1.1" id="Layer_1" xmlns="http://www.w3.org/2000/svg" xmlns:xlink="http://www.w3.org/1999/xlink" x="0px" y="0px"
	 width="467.59px" height="838.764px" viewBox="0 0 467.59 838.764" enable-background="new 0 0 467.59 838.764"
	 xml:space="preserve">
<g>
	<defs>
		<rect id="SVGID_1_" width="467.59" height="838.764"/>
	</defs>
	<clipPath id="SVGID_2_">
		<use xlink:href="#SVGID_1_"  overflow="visible"/>
	</clipPath>
	<path clip-path="url(#SVGID_2_)" fill="#FFFFFF" d="M182.966,751.55c-0.75,0.25-9.25,15.75-9.25,15.75l-18.75,15.5l-7.25,12
		l0.25,21l9.75,9.25c0,0,16.75,10.25,28.5,8s37.25-13,42-20.25s15-21.25,15-21.25l-8.25-40.5l14.25-123.25l18.25,2.5l26.25,126.75
		l0.5,32.25l8,9.75l50,20l30.25-4.5l16-14.75l-17.75-39.75l-13.25-2.75l-25-6l-7.25-6.25l-10.5-86.5l0.5-98l-14.75-26.25l4.25-37.75
		l7.25-13.75l11.5-0.75l19.75-7.75l8,13c0,0,16.75,10.5,17.5,10.75s10.5-3.5,10.5-3.5l9.75-16.75l22.75-50.5l6.75-7.75l11.75,2.25
		l16.25-4l8.25-6l-2.5-12l-0.5-13.5l1.25-10.25l-4.25-16.5l-13.75-4l-1.5-8.5l-0.25-20.25l-12.5-10.25l-6.5,3.5l-1,10l0.25,22.75
		l-6,12l-4.25,14.75l-4.75,25l-15.5,33.25l-12.5,16l-25.25-58.5l28.5-33.25l22-38.25l4-11.75l-18.75-80.25l5.5-1l7.75,13.5l16,31
		l5.25-23l-5.25-39.5l-11.25-52l12,13.25l10.75,10l1-15.75l-8.5-24.5c0,0-12.5-38.75-41.25-67s-81.75-32-81.75-32l-0.5-5.25
		l19.75-17.25l-25.5-2.5l-41.75,15.5l-35.5,23.75l-34-0.75c0,0-45.5,7-60.25,27.25s-33.25,46.25-34.5,70s-4.25,38.25-4.25,38.25
		l6,39.5l-13.5,3.25l-18.5,8.75l-10.75,16.5l1.75,20.5l17.25,13.25l10.75,2.75l12,32.75c0,0,14.5,29.25,37.75,39.5
		s29.75,13,29.75,13l-12.75,20l-34.5,55l-5.75,3.75l-9.25-7.75l-39.25-61.5l-1.5-15.25l-6.5-10.75l5.75-21.25l-1.5-14.25l-9-3
		l-11.75,8.5l-5.25,21.75l-11.25,1.25l-10.5,5.25l0.5,12.75l-0.75,7.25l3.25,9.5l0.75,7.75l5,8.75l-0.5,8l4,4l20.75-1l6.5-2.5
		l5.75,12.5l28.5,46l23.75,25.5l13.25,0.75l16.5-13.5l29,16.25l20.5-23.5l12.25,10.75l1,34.5l-10.25,30.25L182.966,751.55z"/>
	<path clip-path="url(#SVGID_2_)" d="M175.176,263.646c1.542-0.496,2.294,0.688,2.683,1.126
		c13.281,14.96,30.622,21.058,49.899,21.45c15.591,0.319,31.463,0.581,46.758-1.91c17.795-2.898,34.944-9.052,45.235-26.051
		c1.664-2.748,4.192-4.734,7.49-2.939c3.952,2.151,2.995,5.703,1.182,8.646c-5.487,8.905-12.062,17.158-21.91,21.195
		c-10.399,4.261-21.126,8.419-32.109,10.417c-22.393,4.072-45.019,4.398-67.46-0.651c-12.198-2.744-22.172-8.986-29.405-19.191
		C175.228,272.479,169.151,265.583,175.176,263.646"/>
	<path clip-path="url(#SVGID_2_)" d="M243.232,264.3c-4.221-0.891-2.231-6.039-1.944-7.664c1.335-7.561,5.13-13.715,11.946-17.542
		c8.344-4.685,18.161-0.671,20.779,8.476c2.154,7.526,0.246,14.584-3.732,20.973c-0.913,1.465-3.763,3.387-5.705,2.545
		c-1.962-0.851-2.275-4.094-2.062-5.99c0.359-3.242,2.089-6.309,2.729-9.55c0.742-3.75,0.396-7.627-3.574-9.506
		c-4.318-2.043-6.869,1.188-9.021,4.151c-1.544,2.125-2.362,4.762-3.77,7.005C247.716,259.048,247.811,265.267,243.232,264.3"/>
	<path clip-path="url(#SVGID_2_)" d="M194.636,248.218c-3.108-3.008,1.509-6.19,2.584-7.532c6.624-8.268,23.844-11.338,32.972-5.913
		c1.942,1.153,3.815,2.77,5.059,4.619c0.732,1.088,0.741,3.444,0.017,4.512c-0.718,1.055-2.792,1.701-4.223,1.625
		c-1.542-0.082-3.059-1.149-4.532-1.894c-8.492-4.298-16.575-3.883-24.397,1.758C200.68,246.429,197.752,251.235,194.636,248.218"/>
	<path clip-path="url(#SVGID_2_)" d="M272.872,239.226c-4.136-2.307,0.665-6.254,3.031-8.012c7.799-5.794,23.001-6.226,31.185-0.877
		c1.63,1.065,3.131,2.467,4.345,3.991c1.765,2.212,2.876,5.113-0.095,6.822c-1.449,0.835-4.73,0.442-6.001-0.704
		c-5.302-4.784-11.238-7.091-18.209-5.643c-3.148,0.653-6.025,2.532-9.114,3.593C276.352,238.966,274.31,240.027,272.872,239.226"/>
	<path clip-path="url(#SVGID_2_)" d="M467.558,407.897c-0.43-6.414-1.852-12.757-2.673-19.152c-0.195-1.528,0.26-3.148,0.469-4.718
		c1.149-8.609-1.322-16.729-3.881-24.698c-0.631-1.96-3.659-3.59-5.934-4.474c-2.989-1.16-6.322-1.432-8.3-1.838
		c-0.594-8.753-0.514-16.673-1.843-24.348c-1.106-6.38-4.989-11.625-11.246-14.449c-7.843-3.539-14.267,0.555-14.266,9.07
		c0,1.65,0.429,3.297,0.588,4.951c1.233,12.852-0.282,25.062-6.576,36.731c-2.589,4.799-4.545,10.822-4.195,16.116
		c0.52,7.852-1.87,14.287-5.189,20.893c-2.388,4.754-4.121,9.834-6.472,14.609c-4.769,9.691-9.757,19.275-15.446,30.459
		c-7.481-17.583-14.106-33.152-21.075-49.534c16.045-15.322,26.606-34.727,38.174-53.353c5.394-8.687,9.066-18.481,13.087-27.956
		c0.941-2.22,0.568-5.276,0.051-7.793c-3.682-17.926-7.486-35.827-11.416-53.7c-1.189-5.41-5.698-14.914-4.377-16.051
		c1.144-0.985,11.305,23.118,15.809,33.838c2.226,5.299,4.566,16.044,11.188,12.523c1.546-0.821,1.43-2.712,1.784-3.935
		c0.459-1.586,0.69-3.245,0.949-4.882c3.956-25.147,1.38-49.723-5.731-74.078c-3.118-10.677-8.319-31.829-7.304-32.629
		c0.493-0.39,10.255,18.52,19.196,21.389c1.009,0.324,2.364-0.075,3.051-0.881c1.602-1.884,1.06-4.958,0.816-7.358
		c-2.362-23.428-8.129-46.002-19.445-66.719c-9.583-17.544-20.113-34.469-36.703-46.782c-18.655-13.845-39.632-21.557-62.208-25.656
		c-3.854-0.699-7.671-1.598-12.812-2.68c4.804-6.966,10.699-10.529,16.421-14.406c1.625-1.102,3.419-3.801,3.116-5.38
		c-0.307-1.599-3.038-3.739-4.839-3.873c-8.234-0.611-16.766-1.994-24.729-0.551c-23.476,4.254-45.595,12.382-64.796,27.169
		c-3.183,2.452-6.584,4.621-11.325,7.925c1.013-8.539,5.956-11.685,9.543-15.891c4.251-4.986,8.567-10.218,11.369-16.058
		c2.899-6.04,0.237-12.222-4.937-15.813c-10.069-6.986-30.955-4.276-38.817,5.038c-5.618,6.657-4.474,16.618,2.664,20.887
		c1.302,0.779,4.007,1.406,5.302,0.111c1.167-1.167,0.32-2.764-0.048-3.562c-5.108-11.088-2.897-15.361,9.193-17.351
		c1.957-0.322,4.143-0.757,5.946-0.217c3.953,1.185,9.217,1.916,11.215,4.753c2.764,3.928-1.392,8.027-4.139,11.282
		c-3.641,4.316-8.401,7.863-11.292,12.591c-3.018,4.936-4.389,10.879-6.545,16.553c-0.808,0.112-1.812,0.471-2.754,0.349
		c-31.863-4.129-58.744,7.927-83.66,25.987c-3.698,2.682-6.647,6.502-9.615,10.068c-10.847,13.037-17.398,28.406-22.587,44.261
		c-8.583,26.219-13.174,52.987-8.267,80.668c0.906,5.11,1.495,10.276,2.303,15.923c-12.504-0.307-22.665,3.648-30.789,11.602
		c-10.184,9.971-14.849,22.493-10.918,36.409c3.828,13.554,14.257,20.35,28.107,21.976c1.589,0.188,3.145,0.657,5.018,1.062
		c0.399,2.553,0.865,4.807,1.087,7.084c1.191,12.191,5.389,23.269,11.962,33.562c9.848,15.42,23.985,25.654,40.121,33.476
		c6.804,3.299,13.744,6.319,20.694,9.499c-14.686,24.138-28.965,47.609-43.832,72.046c-3.024-3.356-5.941-6.016-8.168-9.161
		c-11.932-16.853-23.675-33.838-35.525-50.748c-2.564-3.66-3.882-7.225-3.092-12.054c0.597-3.652-0.36-8.039-1.968-11.469
		c-3.278-6.994-4.013-13.953-2.471-21.39c1.08-5.212,2.125-10.456,2.724-15.74c0.846-7.454-2.756-11.297-10.233-11.503
		c-11.067-0.304-21.265,7.913-23.63,19.153c-0.672,3.188-1.057,6.436-1.606,9.863c-3.262,0.75-6.173,1.353-9.05,2.094
		c-9.904,2.553-13.471,8.24-11.639,18.315c0.287,1.583,0.853,3.496,0.268,4.798c-4.774,10.623,4.171,6.277,3.558,22.652
		c-0.112,2.989,4.5,5,4.273,15.415c1.542,4.947,4.529,8.406,9.775,8.592c5.241,0.188,10.526-0.407,15.77-0.898
		c2.198-0.207,4.34-1.029,6.117-1.475c1.034,0.952,1.695,1.31,1.968,1.858c1.038,2.086,1.997,4.215,2.901,6.362
		c10.736,25.512,27.035,47.377,45.134,67.95c10.214,11.611,24.018,11.706,35.205,1.031c1.826-1.742,3.387-3.761,4.365-4.858
		c8.596,4.08,16.284,7.845,24.071,11.393c7.322,3.336,9.279,2.862,14.314-3.629c3.825-4.932,7.33-10.111,10.766-14.884
		c8.297,4.294,11.45,6.951,11.091,15.143c-0.253,5.768,0.063,13.719-0.75,18.75c-1.582,9.781-3.12,17.894-7.728,26.735
		c-1.649,3.164-3.508,7.069-3.058,10.333c1.99,14.452-1.53,28.557-1.811,42.83c-0.88,44.64-1.682,89.28-2.372,133.924
		c-0.06,3.927,0.17,8.173,1.608,11.726c1.636,4.041,1.042,7.425-1.303,10.251c-3.357,4.045-7.258,7.695-11.246,11.144
		c-3.512,3.035-7.744,5.254-11.17,8.369c-14.679,13.354-15.73,37.604-1.203,48.652c11.017,8.378,23.987,12.994,38.413,10.637
		c21.087-3.447,35.403-17.384,49.17-32.035c2.471-2.629,4.374-5.895,6.07-9.111c1.035-1.961,1.916-4.509,1.591-6.594
		c-1.537-9.852-3.061-19.747-5.488-29.402c-1.771-7.045-2.842-13.231-1.238-20.986c4.24-20.491,6.229-41.451,9.059-62.233
		c0.72-5.281,1.308-10.581,1.826-15.885c0.536-5.477,0.867-17.813,1.38-24.104c4.457,0.988,7.001-0.08,10.75,0.75
		c0.607,7.02,1.775,22.013,2.668,28.243c3.637,25.359,7.43,50.696,11.259,76.027c1.085,7.176,3.868,13.364,10.748,15.645
		c0,6.758,0.333,12.752-0.068,18.697c-0.899,13.324,6.062,22.067,16.636,28.28c12.367,7.267,25.626,12.658,39.557,16.26
		c12.334,3.188,24.838,2.584,36.356-2.064c7.427-2.997,14.591-8.297,19.947-14.287c4.747-5.31,0.582-12.783-0.465-19.239
		c-0.477-2.936-1.439-5.815-2.424-8.638c-5.587-16.004-16.182-25.384-33.731-26.528c-8.17-0.532-16.532-1.44-23.559-5.646
		c-0.736-6.16-1.45-11.758-2.068-17.367c-2.372-21.511-5.726-42.974-6.82-64.551c-1.481-29.264-1.274-58.615-1.688-87.93
		c-0.173-12.162-1.604-23.771-9.139-34.102c-2.576-3.533-4.432-8.5-4.443-12.816c-0.026-9.625,1.307-19.255,2.104-28.881
		c0.513-6.179,3.986-11.288,9.195-13.17c7.983-2.886,16.64-3.903,25.436-5.808c4.228,9.462,11.309,15.756,20.222,20.155
		c6.078,2.998,11.676,2.384,16.53-2.374c2.603-2.55,5.372-5.169,7.146-8.282c5.594-9.814,11.271-19.641,15.938-29.909
		c5.084-11.186,9.074-22.87,13.894-35.236c3.55,0,7.183-0.353,10.724,0.07c8.354,0.996,15.808-1.833,23.116-5.092
		C465.328,417.756,467.916,413.258,467.558,407.897 M403.737,306.867c0.42,2.776,0.502,6.078-0.598,8.537
		c-15.207,34.014-33.821,65.653-63.872,89.019c-3.663,2.848-7.661,5.282-11.6,7.755c-1.316,0.828-2.931,1.181-5.644,2.226
		c3.117-15.338,5.803-29.605,8.932-43.772c11.945-54.089,16.128-108.595,8.323-163.631c-4.703-33.164-20.229-60.991-44.159-84.154
		c-8.34-8.073-16.921-15.979-26.038-23.137c-5.082-3.99-11.495-6.285-18.946-10.207c13.136,1.13,23.676,5.303,33.446,10.393
		c28.405,14.798,53.264,34.12,70.857,61.445c13.038,20.248,22.624,42.178,30.005,65.087
		C392.925,252.752,399.604,279.508,403.737,306.867 M414.965,211.873c3.938,15.175,5.001,30.427,4.201,48.566
		c-0.292,6.622-6.158-7.422-8.45-13.389c-2.982-7.763-10.212-17.969-18.36-32.767c-7.204-13.081-14.175-26.317-20.596-39.797
		c-16.244-34.106-42.507-58.39-74.713-76.805c-7.744-4.427-16.121-7.856-24.443-11.141c-15.78-6.23-24.977-6.863-42.34-3.468
		c-1.476-3.879-3.035-7.975-4.795-12.598c4.009-1.303,7.044-2.781,10.229-3.252c39.801-5.876,78.112-2.306,111.639,21.964
		c11.392,8.245,20.568,19.732,30.037,30.378c5.263,5.917,9.252,13.025,13.442,19.825c7.014,11.386,12.728,23.277,15.348,36.635
		C408.529,188.085,411.874,199.961,414.965,211.873 M309.834,24.485c-4.337,5.203-8.396,10.072-13.08,15.689
		c-14.02-1.754-28.766-4.926-45.132,1.966C261.04,32.573,295.506,22.671,309.834,24.485 M232.781,55.887
		c18.577-8.256,37.637-12.758,58.157-8.096c14.879,3.382,30.151,5.148,44.897,8.985c28.354,7.377,49.73,24.336,65.203,49.291
		c11.193,18.055,17.934,37.617,23.873,57.885c1.054,3.597,3.91,12.561,1.554,10.597c-10.5-8.75-18.541-22.378-24.108-32.66
		c-10.806-19.956-23.781-38.484-41.216-53.52c-24.013-20.708-52.436-29.698-83.446-31.486c-12.919-0.745-25.995-1.541-38.728,2.139
		c-4.979,1.44-9.903,3.069-14.853,4.613c-0.306-0.585-0.613-1.169-0.919-1.753C226.38,59.859,229.372,57.402,232.781,55.887
		 M102.28,128.299c4.598-11.902,10.155-23.161,18.138-33.139c1.865-2.331,3.667-4.881,6.02-6.628
		c23-17.074,47.788-28.938,77.537-26.188c10.921,1.009,11.497,1.254,14.545,11.419c0.946,3.153,1.705,6.363,2.852,10.686
		c-7.792,0.519-14.486,0.473-21.011,1.501c-16.074,2.534-30.639,9.394-43.912,18.36c-11.91,8.046-19.912,19.989-23.459,33.835
		c-3.449,13.469-4.922,27.441-7.34,41.178c-1.436,8.159-2.584,16.404-4.638,24.412c-3.304,12.877-13.329,19.071-25.386,24.174
		c-0.997-2.597-2.03-4.585-2.533-6.699C85.482,189.193,90.623,158.469,102.28,128.299 M106.275,347.729
		c-10.899-11.039-16.943-24.528-20.658-39.286c-0.406-1.612-0.717-3.258-0.931-4.906c-1.048-8.028-3.961-13.023-13.627-13.373
		c-9.219-0.335-16.551-5.995-18.894-15.365c-2.243-8.964,0.522-17.324,7.301-23.685c7.24-6.795,15.404-11.825,26.102-8.859
		c3.525,0.977,6.447,0.677,8.627-2.862c0.762-1.236,2.517-2.095,3.998-2.619c22.418-7.93,32.765-24.898,35.45-47.471
		c0.904-7.599,0.969-15.298,1.832-22.905c2.016-17.764,5.969-34.849,18.793-48.441c1.823-1.933,3.54-4.134,5.741-5.517
		c19.806-12.442,40.418-20.783,64.884-18.461c23.212,2.203,41.832,11.666,57.315,28.5c6.988,7.597,14.853,14.487,21.136,22.612
		c16.022,20.711,25.963,44.155,28.17,70.441c1.391,16.581,2.127,33.218,3.156,49.83c1.511,31.65-5.412,62.357-9.89,93.311
		c-0.865,5.982-3.473,9.876-9.203,12.913c-12.602,6.675-25.733,10.72-39.893,11.789c-14.58,1.099-29.139,3.129-43.727,3.338
		c-24.734,0.355-49.314-2.21-73.016-9.65C139.471,370.953,121.003,362.648,106.275,347.729 M15.716,416.299
		c2.916-5.797,16.481-7.583,19.832-1.352C39.94,423.118,11.468,424.745,15.716,416.299 M10.867,402.798
		c-0.421-1.979,3.046-5.362,4.349-5.249c7.687-1.331,21.614-2.757,21.25,5.25C36.216,408.299,12.466,410.299,10.867,402.798
		 M32.845,391.294c-3.268,1.193-7.074,1.145-10.659,1.168c-2.934,0.018-5.864-0.706-8.809-0.937
		c-3.278-0.258-6.105-1.287-5.987-5.052c0.122-3.9,2.766-5.77,6.568-5.857c1.64-0.037,3.286,0.213,4.928,0.332
		c-0.001,0.016-0.003,0.034-0.004,0.052c4.262,0.4,8.578,0.52,12.763,1.325c1.934,0.372,4.965,1.125,5.404,3.183
		C37.556,387.888,34.703,390.616,32.845,391.294 M37.332,370.03c-0.639,1.721-1.359,4.591-2.866,5.019
		c-7.909,2.249-19.779,3.24-26.471-2.12c-5.077-4.065,1.836-8.084,5.654-9.506c7.313-2.722,14.289-0.458,21.048,2.138
		C36.043,366.08,37.73,368.958,37.332,370.03 M31.316,347.437c1.093-7.775,10.566-20.66,17.294-12.614
		c5.558,6.647-1.394,24.727-5.144,24.727C33.023,359.549,30.361,354.234,31.316,347.437 M119.877,495.756
		c-8.411,7.287-15.313,7.077-22.481-1.24c-18.974-22.013-34.672-46.289-48.955-71.258c4.671-8.051,8.52-12.005,2.497-14.019
		c-1.583-0.529-2.725,1.642-3.9,2.567c-1.182,0.93-2.214,2.049-4.334,2.746c-0.4-12.956-0.513-25.653,2.252-38.953
		c5.357,3.597,5.201,7.46,4.137,11.523c-0.673,2.573-2.051,5.111-2.043,7.662c0.006,1.827,2.138,5.331,2.718,5.21
		c5.554-1.163,6.446,3.208,8.559,6.374c10.89,16.328,21.609,32.78,32.96,48.783c4.091,5.77,8.4,12.243,16.99,12.533
		c0.97,0.032,2.077,1.517,2.796,2.553c4.527,6.53,8.963,13.126,13.763,20.191C123.407,491.984,121.819,494.076,119.877,495.756
		 M233.877,797.535c-8.717,14.159-21.24,23.578-37.038,28.601c-15.268,4.856-28.817-0.818-42.049-7.439
		c-1.712-0.856-3.352-3.513-3.544-5.479c-1.227-12.502,0.533-24.024,12.189-31.519c3.422,0.357,6.689,0.938,9.965,0.994
		c5.959,0.1,10.995,2.116,15.401,6.111c2.221,2.016,5.357,2.66,6.799-0.287c0.864-1.767,0.269-5.31-1.057-6.896
		c-4.565-5.462-18.577-3.321-18.562-6.822c0.023-5.756,7.972-3.471,13.416-1.091c3.044,1.331,5.78,3.524,8.916,4.438
		c2.181,0.637,6.156,0.637,6.969-0.614c2.151-3.312-0.848-5.567-3.639-6.784c-5.994-2.613-21.351-4.923-19.557-7.772
		c2.631-4.175,14.772-1.158,21.173,1.841c2.364,1.107,4.171,3.371,6.507,4.576c1.582,0.818,4.041,2.198,5.49,1.013
		c1.593-1.305,0.17-4.113,0.208-6.171c0.012-0.648-0.131-1.301-0.229-2.185c5.19-1.816,10.433-3.652,16.551-5.792
		c0.758,2.44,1.871,4.781,2.175,7.222c1.071,8.59,2.146,17.198,2.599,25.831C236.699,792.014,235.363,795.121,233.877,797.535
		 M335.167,751.966c0.358,0.006,0.698,1.047,1.098,1.688c-2.806,3.146-5.864,6.129-8.356,9.525c-1.746,2.382-3.321,5.643,0.107,7.87
		c3.145,2.043,4.675-0.749,6.128-3.05c3.123-4.952,9.13-13.758,13.997-9.156c4.476,4.234-12.969,12.057-5.838,15.979
		c7.969,4.383,14.42-20.86,20.826-12.845c4.133,5.172-15.979,18.743-4.458,19.026c7.746,0.189,7.335-15.176,14.561-16.825
		c6.926-1.58,9.802,7.743,12.263,13.194c1.629,3.606,2.741,7.491,3.715,11.344c3.065,12.126,0.828,16.886-11.075,20.896
		c-9.135,3.077-18.776,5.396-28.337,2.048c-15.309-5.363-30.431-11.262-45.613-16.982c-3.359-1.265-5.176-3.652-5.778-7.37
		c-1.492-9.193-1.884-18.349-0.695-28.646C311.342,761.136,322.244,751.744,335.167,751.966 M329.611,478.803
		c4.472-17.946,2.856-33.027-8.48-45.802c-2.782-3.137-9.093-10.717-12.111-5.048c-1.227,2.303,1.359,4.565,2.523,6.137
		c8.619,11.639,12.191,24.27,8.117,38.545c-0.454,1.591-0.529,3.499-1.48,4.706c-11.959,15.165-8.756,34.003-12.164,51.179
		c-0.859,4.325,1.435,9.776,3.562,14.074c3.056,6.178,7.287,11.774,11.333,18.115c-9.5,7.304-18.458,14.519-30.573,16.336
		c-8.213,1.231-16.277,3.725-24.517,4.474c-25.338,2.305-48.676-5.249-71.304-15.658c-1.195-0.551-2.289-1.369-3.326-2.193
		c-0.762-0.607-1.356-1.426-2.679-2.861c3.881-10.751,9.912-21.3,9.243-33.8c-0.635-11.875,2.462-33.707-0.136-35.719
		c-18.472-14.312-17.652-42.738-2.107-57.529c3.381-3.216-5.145-2.317-7.364-0.837c-6.378,4.256-11.084,10.269-12.147,17.645
		c-1.264,8.758-1.106,17.788-0.788,26.674c0.124,3.456,0.406,6.055-2.057,9.055c-4.184,5.097-7.562,10.856-11.648,16.882
		c-19.574-10.687-35.738-24.86-48.201-43.877c5.656-9.126,11.125-18.211,16.853-27.129c8.099-12.608,16.408-25.08,24.587-37.636
		c2.824-4.335,5.901-5.863,11.628-4.52c32.726,7.678,65.825,9.108,99.239,5.017c17.512-2.146,35.059-3.729,52.813-13.066
		c-1.071,10.02-1.947,17.895-2.738,25.779c-0.232,2.317-0.358,4.661-0.309,6.987c0.162,7.465,3.06,9.897,10.104,7.081
		c6.729-2.688,13.039-6.522,19.303-10.242c3.386-2.011,6.291-4.833,10.458-8.111c6.026,16.026,11.793,31.362,17.957,47.756
		C362.849,464.918,348.13,472.718,329.611,478.803 M425.716,416.299c-2.677,2.567-8.732,9.388-11.456,15.937
		c-6.007,14.438-12.194,28.811-18.689,43.036c-2.193,4.804-5.255,9.29-8.422,13.55c-4.105,5.519-6.649,5.961-12.742,2.313
		c-5.915-3.541-11.943-7.129-16.151-14.671c9.738-4.489,15.509-13.481,25.44-17.312c2.936-1.134,5.085-5.095,6.918-8.162
		c9.593-16.05,18.002-32.671,22.869-50.851c0.477-1.784,4.163-19.27,4.163-19.27c-0.128,0.138,0.769-6.944,1.522-11.809
		c1.548-1.26,3.798,0.49,3.798,3.24c0,1.663,2.563,37.657,2.25,40.25C424.726,416.62,426.12,415.913,425.716,416.299
		 M427.466,351.049c-3.798-5.352-3-27,2.197-29.851c1.862-1.023,4.034,1.753,5.267,3.233c5.817,6.995,6.805,18.731,1.036,26.118
		C434.076,352.969,429.806,354.347,427.466,351.049 M454.197,361.308c1.023,0.12,2.247,2.176,2.554,3.523
		c0.216,0.945-0.874,3.126-1.54,3.193c-8.026,0.821-16.081,1.48-24.142,1.793c-1.007,0.039-3.889-1.544-3.678-3.874
		C428.361,355.255,445.094,360.236,454.197,361.308 M428.29,382.189c0.436-2.246,3.216-4.21,4.888-4.298
		c8.31-0.439,25.288-5.092,26.005-0.201c1.276,8.723-10.799,7.914-16.799,8.809C437.713,387.195,426.764,390.067,428.29,382.189
		 M436.712,393.086c6.21-0.724,12.425-1.468,18.659-1.881c1.316-0.087,3.759,0.36,4.177,1.918
		c2.531,9.427-24.582,11.676-28.06,5.771C429.724,395.898,433.297,393.484,436.712,393.086 M456.625,413.402
		c-7.299,2.13-23.878,8.661-24.269,0.651c-0.391-8.004,19.551-10.577,27.859-7.004C465.025,409.119,459.727,412.498,456.625,413.402
		"/>
</g>
</svg>
