<?xml version="1.0" encoding="utf-8"?>
<!-- Generator: Adobe Illustrator 16.0.3, SVG Export Plug-In . SVG Version: 6.00 Build 0)  -->
<!DOCTYPE svg PUBLIC "-//W3C//DTD SVG 1.1//EN" "http://www.w3.org/Graphics/SVG/1.1/DTD/svg11.dtd">
<svg version="1.1" id="Layer_1" xmlns="http://www.w3.org/2000/svg" xmlns:xlink="http://www.w3.org/1999/xlink" x="0px" y="0px"
	 width="535.608px" height="699.958px" viewBox="0 0 535.608 699.958" enable-background="new 0 0 535.608 699.958"
	 xml:space="preserve">
<g>
	<defs>
		<rect id="SVGID_1_" width="535.608" height="699.958"/>
	</defs>
	<clipPath id="SVGID_2_">
		<use xlink:href="#SVGID_1_"  overflow="visible"/>
	</clipPath>
	<path clip-path="url(#SVGID_2_)" d="M482.795,293.043c0.842-6.283,1.683-12.566,2.715-20.283
		c-5.696-4.198-5.539-10.871-0.998-17.695c-10.144-9.951-9.026-13.983-0.397-24.798c-6.933-15.755-6.546-16.414,15.104-25.132
		c-2.545-8.712-1.25-16.963,4.621-24.159c6.609-8.098,14.299-7.183,18.636,2.424c4.438,9.836,3.643,20.105,1.272,30.245
		c4.029,6.158,10.437,11.573,4.483,19.829c1.729,2.433,3.241,4.565,4.764,6.692c3.282,4.589,3.617,9.377,0.173,13.878
		c-2.144,2.805-1.705,5.799-2.342,8.758c-1.73,8.016-0.333,15.819-0.876,23.647c-0.221,3.2-2.646,7.175-5.301,9.059
		c-3.795,2.692-5.911,6.05-7.809,9.952c-12.596,25.914-29.373,49.112-46.735,71.941c-3.209,4.22-5.503,9.127-8.61,13.434
		c-5.625,7.802-11.168,15.723-17.505,22.925c-3.061,3.479-7.845,5.439-13.703,9.315c-2.167,7.467-4.964,17.365-7.917,27.213
		c-3.339,11.131-3.813,11.463-14.489,8.276c-11.793-3.522-23.522-7.257-35.235-11.036c-9.361-3.022-15.49,0.805-16.658,10.414
		c-2.619,21.525-3.325,43.125-3.898,64.796c-0.714,26.946-3.122,53.846-4.757,80.769c-0.16,2.642-0.021,5.301-0.021,8.265
		c7.768,3.913,15.812,7.725,23.633,11.955c18.011,9.746,23.383,27.253,26.933,45.52c0.711,3.656-0.909,7.848-1.803,11.71
		c-1.165,5.035-4.46,8.034-9.628,8.893c-2.629,0.437-5.234,1.236-7.874,1.365c-28.447,1.394-55.859-2.418-80.988-16.861
		c-5.164-2.969-10.166-6.309-14.884-9.94c-7.672-5.907-9.35-14.155-8.008-23.284c0.484-3.295,1.084-6.575,1.72-9.846
		c0.811-4.156,2.776-8.342-1.992-11.734c-1.008-0.717-1.101-3.064-1.18-4.683c-1.427-29.266-2.777-58.535-4.165-87.803
		c-0.628-13.238-1.309-26.475-2.549-39.753c-10.036,42.603-8.983,86.875-19.852,129.744c3.324,4.888,7.194,9.899,10.299,15.347
		c2.778,4.873,5.078,10.096,6.947,15.392c3.579,10.144,1.595,18.426-5.455,27.538c-8.742,11.304-19.858,17.473-32.463,21.479
		c-13.912,4.42-28.253,4.16-42.279-0.604c-12.934-4.391-21.947-13.694-29.404-24.503c-1.791-2.596-1.999-6.953-1.548-10.313
		c2.253-16.779,11.612-30.248,21.183-43.547c1.159-1.609,2.502-3.087,2.671-3.294c-1.601-14.173-3.351-26.934-4.436-39.754
		c-3.199-37.83-6.072-75.688-9.273-113.518c-0.316-3.737-1.998-7.357-3.262-11.791c-9.458,4.087-17.543,8.034-25.95,11.096
		c-9.982,3.638-20.144,6.877-30.412,9.598c-7.534,1.994-9.563,1.042-12.837-5.826c-2.692-5.652-4.788-11.747-6.062-17.872
		c-1.303-6.258-3.468-10.741-8.445-15.628c-9.153-8.986-16.129-20.237-23.703-30.77c-6.016-8.366-11.593-17.05-17.317-25.627
		c-3.136-4.696-6.198-9.442-9.245-14.199c-6.105-9.529-12.361-18.971-18.182-28.673c-2.701-4.502-4.836-9.417-6.62-14.364
		c-0.845-2.344-1.408-6.285-0.129-7.636c4.976-5.251,1.834-12.248,4.686-17.8c0.529-1.031,0.687-2.796,0.157-3.738
		c-3.138-5.564-4.28-11.088-1.202-17.115c0.377-0.736-1.064-2.241-1.246-3.453c-0.522-3.466-2.13-7.504-0.953-10.339
		c2.501-6.025,1.301-11.746,0.863-17.663c-0.417-5.631-1.079-11.302-0.795-16.913c0.422-8.366,4.568-14.41,12.799-17.301
		c7.047-2.475,11.537-1.042,14.853,5.706c1.875,3.813,2.876,8.054,4.258,12.067c5.724-0.369,11.311-1.173,16.865-0.994
		c12.138,0.393,17.42,8.841,12.296,19.897c-1.908,4.118-5.301,7.549-8.296,11.676c4.362,2.857,11.339,3.931,11.073,11.765
		c-0.242,7.143-6.473,9.594-10.943,14.325c2.699,4.013,9.158,7.01,6.732,12.881c-1.894,4.584-5.68,8.386-9.178,13.313
		c5.855,8.085,2.422,15.545-5.432,21.786c9.754,14.007,19.282,27.689,30.268,43.465c0-5.263,0.218-8.079-0.045-10.851
		c-0.622-6.58,1.47-11.425,7.384-15.005c9.399-5.691,18.474-11.92,27.67-17.943c2.477-1.623,4.901-3.329,7.753-5.271
		c-3.608-10.305-7.157-20.506-0.839-30.782c5.739-9.333,13.659-15.327,25.218-15.574c-3.356-21.805-6.369-42.819-9.869-63.752
		c-3.922-23.467-4.582-47.052-3.554-70.738c0.115-2.65,0.193-5.492,1.176-7.881c8.521-20.723,19.879-39.08,41.177-49.228
		c9.906-4.719,19.931-9.383,29.152-15.252c4.439-2.826,8.439-7.869,10.394-12.797c6.618-16.687,13.405-21.368,31.639-19.773
		c0.632,0.055,1.285-0.146,2.207-0.263c0.394-0.673,1.117-1.436,1.322-2.319c3.508-15.059,13.395-22.246,28.397-23.488
		c2.056-0.171,4.584-1.165,5.904-2.654c7.941-8.956,17.102-9.403,27.097-4.316c4.423,2.251,8.609,4.97,13.702,7.942
		c7.897-3.701,16.799-5.713,26.121-2.004c9.876,3.93,12.028,12.537,13.217,22.782c7.111,0.485,14.785,0.659,19.054,7.889
		c3.92,6.638,2.157,13.512,0.515,19.653c5.304,2.67,11.31,4.112,14.759,7.89c3.208,3.514,3.691,9.516,6.037,16.35
		c1.923,0.966,5.938,2.582,9.521,4.875c6.125,3.918,12.157,8.031,17.899,12.485c6.78,5.26,10.261,12.55,9.153,21.063
		c-2.27,17.45-4.316,35-7.979,52.184c-5.545,26.017-14.653,51.257-17.036,77.98c-0.317,3.558-0.604,7.119-0.912,10.754
		c6.144-0.955,11.345-2.247,16.592-2.469c8.134-0.345,15.302,2.392,19.312,9.947c4.002,7.54,2.161,14.985-2.266,21.766
		c-5.2,7.969-13.13,12.049-22.741,14.41c-0.79,8.557-1.579,17.102-2.438,26.389c3.392,2.381,6.629,5.346,10.418,7.16
		c6.319,3.024,8.825,7.623,8.06,14.411c-0.242,2.156-0.037,4.364,1.46,6.901c13.845-22.515,27.688-45.029,41.532-67.543
		C483.412,293.732,483.104,293.387,482.795,293.043 M318.032,411.931c1.07,0.081,2.096,0.395,3.01,0.193
		c19.863-4.354,37.844-12.537,53.068-26.269c2.968-2.676,5.697-5.664,8.885-8.038c12.064-8.98,19.064-21.305,22.808-35.425
		c2.803-10.562,4.852-21.379,6.392-32.203c1.088-7.652,3.223-13.515,11.801-14.9c1.938-0.313,4.055-0.918,5.584-2.064
		c3.142-2.353,6.628-4.705,8.748-7.875c4.994-7.468,1.406-14.124-7.508-14.329c-6.13-0.141-11.851,1.641-16.693,5.639
		c-2.246,1.854-4.449,3.761-7.523,6.367c-5.718-7.776-11.154-14.777-16.05-22.139c-1.075-1.617-0.508-4.556-0.209-6.821
		c1.567-11.862,3.804-23.657,4.835-35.561c1.463-16.866,1.934-33.817,3.149-50.709c0.35-4.866-2.002-7.444-5.679-9.527
		c-8.979-5.087-17.715-10.697-27.033-15.063c-11.873-5.562-24.225-10.106-36.234-15.034c-7.748,20.819-22.731,30.719-42.615,33.027
		c-25.497,2.958-42.887-10.025-55.48-31.207c-3.779,1.018-7.346,1.786-10.784,2.941c-11.31,3.802-22.744,7.319-33.797,11.774
		c-7.952,3.205-12.746,9.847-13.144,18.572c-0.621,13.614-0.85,27.256-0.856,40.886c-0.007,18.963,0.095,37.934,0.645,56.887
		c0.292,10.069-3.158,17.703-10.491,24.66c-4.738,4.494-8.344,6.235-14.782,3.776c-9.046-3.454-18.183,2.477-20.226,12.03
		c-2.212,10.345,2.8,17.693,13.186,19.31c1.645,0.255,3.321,0.338,4.95,0.665c6.987,1.397,8.945,3.435,9.645,10.548
		c1.318,13.397,4.541,26.385,10.78,38.221c13.213,25.062,32.137,42.349,62.494,42.457c10.844,0.038,21.69,0.006,32.705,0.006
		v-35.455c-9.01-1.597-17.246-2.677-25.234-4.727c-2.126-0.546-4.984-4.139-4.881-6.201c0.194-3.852,3.889-3.252,7.043-3.084
		c11.624,0.618,23.368,2.112,34.875,1.104c19.78-1.735,40.155-2.789,55.979-17.61c0.48-0.45,1.044-1.02,1.634-1.111
		c2.461-0.38,5.66-1.692,7.274-0.643c3.198,2.076,1.664,5.876-0.317,7.875c-4.612,4.654-9.662,8.935-14.894,12.891
		c-2.778,2.103-6.306,3.214-8.024,4.055C316.124,384.862,317.075,398.349,318.032,411.931 M240.004,606.768
		c7.552-41.14,8.557-83.713,16.328-127.193c-30.426,2.681-55.989-10.123-83.632-19.794c3.859,49.773,7.618,98.243,11.334,146.164
		c10.29-0.695,19.224-1.866,28.14-1.737C221.024,604.336,229.855,605.775,240.004,606.768 M336.153,608.823
		c9.134-49.162,3.562-98.406,8.75-148.487c-21.749,11.529-43.439,18.229-67.024,20.601c0.301,44.229,2.992,87.484,4.997,131.685
		C301.787,611.273,319.231,610.03,336.153,608.823 M491.854,298.028c-13.605,22.587-26.679,44.552-40.078,66.313
		c-2.574,4.18-6.468,7.538-9.688,11.331c-1.242,1.465-3.08,2.973-3.317,4.649c-1.236,8.735-2.046,17.531-3.004,26.306
		c0.61,0.354,1.223,0.706,1.833,1.06c3.458-4.229,7.214-8.25,10.312-12.727c8.697-12.55,17.11-25.297,25.66-37.948
		c7.448-11.023,15.178-21.865,22.307-33.091c4.508-7.096,8.14-14.751,12.358-22.513C501.858,300.091,497.004,299.09,491.854,298.028
		 M78.09,420.621c0.714-0.426,1.427-0.852,2.141-1.277c-0.499-9.605-0.56-19.264-1.722-28.789
		c-0.438-3.595-3.102-7.104-5.316-10.257c-4.561-6.49-9.604-12.641-14.263-19.065c-6.827-9.414-13.42-19-20.302-28.372
		c-1.045-1.424-3.065-2.872-4.718-2.977c-5.739-0.363-11.515-0.14-18.968-0.14C36.566,360.863,57.329,390.742,78.09,420.621
		 M271.81,376.553c0.842,14.674,1.42,28.229,2.528,41.74c0.289,3.512,2.016,6.983,3.472,10.302
		c2.397,5.471,7.002,7.929,12.782,7.808c5.781-0.121,8.856-4.048,10.797-8.942c7.128-17.967,6.804-36.115,1.664-54.983
		c-4.028,0.82-7.397,1.508-10.575,2.155c1.169,10.551,2.228,19.769,3.178,28.997c0.166,1.622,0.417,3.623-0.336,4.863
		c-1.106,1.816-3,4.174-4.712,4.308c-1.627,0.127-4.182-1.961-5.021-3.703c-1.251-2.601-1.632-5.727-1.892-8.674
		c-0.692-7.836-1.119-15.694-1.676-23.87H271.81z M8.732,260.435c22.027,1.664,45.529-13.161,46.093-27.566
		c-8.075-2.769-14.902-2.841-21.589,1.798C23.804,241.209,16.012,249.583,8.732,260.435 M57.373,264.68
		c-12.218-1.657-32.272,2.02-41.427,7.202c-2.955,1.673-5.848,3.635-5.099,7.619c0.917,4.883,4.921,4.572,8.598,4.537
		c1.319-0.011,2.817,0.221,3.928-0.303c10.414-4.92,20.783-9.937,31.092-15.071C55.448,268.175,55.941,266.702,57.373,264.68
		 M484.897,241.662c8.499,8.147,18.702,10.958,32.955,10.21c3.457-0.182,6.61-0.683,8.012-5.964
		c-2.716-2.418-5.48-6.916-8.958-7.563c-7.737-1.436-15.841-1.278-23.773-1.041C490.662,237.378,488.264,239.797,484.897,241.662
		 M27.495,321.242c5.372-0.502,8.864-0.254,11.916-1.295c2.47-0.841,5.195-2.866,6.244-5.1c0.495-1.056-2.324-4.327-4.276-5.675
		c-1.703-1.175-4.403-1.724-6.478-1.393c-6.246,0.998-12.352,2.039-18.668,0.207c-3.32-0.963-6.008,0.649-6.796,4.096
		c-0.81,3.541,1.398,5.938,4.472,6.707C19.012,320.066,24.28,320.688,27.495,321.242 M519.373,278.365
		c-22.57-1.16-23.539-0.871-27.066,8.224c6.845,5.146,14.507,5.763,22.486,3.574C520.826,288.508,521.502,286.486,519.373,278.365
		 M11.272,295.756c13.176,6.474,34.553,3.171,41.379-5.269c-6.119-3.098-11.903-4.884-18.778-1.938
		c-4.74,2.031-10.082,2.628-15.106,4.04C16.803,293.143,14.972,294.169,11.272,295.756 M522.004,226.276
		c-8.99-11.693-21.412-13.955-32.082-6.515c0.765,5.274,4.953,7.073,9.17,7.403C506.524,227.746,514.33,230.835,522.004,226.276
		 M13.267,241.333c4.523-4.749,8.705-9.137,12.977-13.621c-1.861-5.262-3.523-9.963-5.188-14.674
		C10,217.168,7.949,225.167,13.267,241.333 M521.777,264.926c-4.645-4.18-14.037-5.986-24.988-4.78
		c-2.845,0.313-6.203-0.058-6.345,4.273C502.933,271.359,516.003,271.551,521.777,264.926 M513.017,184.685
		c-7.195,6.82-6.459,14.104-5.064,22.154c3.098,0.657,6.076,1.286,9.732,2.061C517.247,200.352,518.661,192.668,513.017,184.685"/>
	<path clip-path="url(#SVGID_2_)" fill="#FFFFFF" d="M318.031,411.931c-0.957-13.582-1.906-27.068-2.966-42.11
		c1.718-0.841,5.246-1.952,8.025-4.055c5.229-3.956,10.28-8.236,14.892-12.891c1.983-1.999,3.518-5.799,0.319-7.875
		c-1.615-1.049-4.815,0.263-7.276,0.643c-0.589,0.091-1.151,0.661-1.633,1.111c-15.824,14.821-36.199,15.875-55.978,17.61
		c-11.508,1.008-23.251-0.486-34.875-1.104c-3.154-0.169-6.85-0.768-7.043,3.084c-0.103,2.062,2.755,5.655,4.881,6.201
		c7.987,2.05,16.224,3.13,25.233,4.727v35.455c-11.014,0-21.86,0.032-32.705-0.006c-30.356-0.108-49.28-17.395-62.493-42.457
		c-6.239-11.836-9.463-24.824-10.78-38.221c-0.7-7.113-2.658-9.151-9.646-10.548c-1.629-0.327-3.304-0.41-4.95-0.665
		c-10.386-1.617-15.397-8.965-13.185-19.31c2.043-9.553,11.179-15.484,20.225-12.03c6.439,2.459,10.045,0.718,14.782-3.776
		c7.333-6.957,10.784-14.592,10.492-24.66c-0.55-18.953-0.653-37.924-0.645-56.887c0.006-13.63,0.235-27.272,0.856-40.886
		c0.398-8.725,5.192-15.367,13.144-18.572c11.053-4.455,22.486-7.972,33.797-11.774c3.437-1.155,7.005-1.923,10.783-2.941
		c12.594,21.182,29.985,34.165,55.481,31.207c19.883-2.308,34.868-12.208,42.616-33.027c12.009,4.928,24.359,9.472,36.232,15.034
		c9.319,4.366,18.056,9.976,27.033,15.063c3.677,2.083,6.03,4.661,5.68,9.527c-1.217,16.892-1.687,33.843-3.148,50.709
		c-1.032,11.904-3.27,23.699-4.835,35.561c-0.299,2.265-0.867,5.204,0.209,6.821c4.894,7.362,10.332,14.363,16.049,22.139
		c3.075-2.606,5.278-4.513,7.524-6.367c4.843-3.998,10.562-5.78,16.691-5.639c8.914,0.205,12.502,6.861,7.508,14.329
		c-2.118,3.17-5.604,5.522-8.746,7.875c-1.529,1.146-3.646,1.751-5.585,2.064c-8.577,1.385-10.714,7.248-11.802,14.9
		c-1.54,10.824-3.588,21.641-6.39,32.203c-3.744,14.121-10.744,26.445-22.809,35.425c-3.188,2.374-5.918,5.362-8.886,8.038
		c-15.223,13.731-33.205,21.914-53.066,26.269C320.129,412.325,319.103,412.012,318.031,411.931 M316.15,308.218
		c5.428-1.607,9.885-2.945,14.353-4.248c15.574-4.539,24.547-15.413,28.648-30.558c1.469-5.424,2.198-11.129,2.566-16.752
		c1.028-15.702-12.027-34.415-26.97-39.577c-20.378-7.038-50.508,1.544-59.659,29.595c-0.609,1.87-1.506,4.142-0.953,5.783
		c0.856,2.546,2.848,4.71,4.358,7.036c1.957-1.479,4.543-2.573,5.742-4.519c2.431-3.942,3.76-8.558,6.157-12.524
		c11.031-18.252,37.632-20.572,51.485-5.188c14.404,15.997,5.273,48.201-13.147,55.517c-6.163,2.448-12.641,4.107-18.981,6.1
		c-2.522,0.793-5.336,1.071-7.525,2.397c-2.08,1.258-4.782,3.528-4.858,5.446c-0.066,1.685,2.854,3.966,4.925,5.171
		c6.749,3.926,7.158,7.136,1.253,13.44c-9.373-4.929-9.695-4.759-11.839,5.469c-1.114,5.323-3.159,9.987-9.483,12.138
		c-0.78-2.607-1.829-4.742-2.007-6.948c-0.934-11.583-0.857-11.589-11.878-10.248c-0.33,0.04-0.657,0.134-0.988,0.149
		c-5.02,0.224-7.526-3.304-5.347-7.728c0.716-1.454,1.785-2.874,3.03-3.901c3.708-3.061,2.893-6.5,0.805-9.786
		c-2.497-3.93-5.902-2.175-8.794-0.567c-15.439,8.586-30.525,0.7-41.007-8.541c-11.319-9.977-7.613-39.069,11.404-41.691
		c12.139-1.674,23.084-1.47,32.801,7.05c1.637,1.434,5.274,2.721,6.667,1.884c3.525-2.12,2.829-6.171,0.506-8.703
		c-3.07-3.344-6.644-6.793-10.713-8.543c-10.337-4.45-21.137-5.036-32.249-2.186c-9.621,2.468-17.844,6.995-21.418,16.31
		c-8.244,21.486-4.566,40.266,16.77,52.301c9.567,5.397,19.711,7.597,31.076,6.325c0.164,12.83,7.66,17.954,18.609,18.732
		c0.813,2.499,1.323,4.442,2.076,6.286c0.879,2.151,1.745,4.367,3.019,6.288c3.476,5.242,7.522,6.333,12.626,2.58
		c3.942-2.899,7.617-6.518,10.408-10.517c2.203-3.159,4.254-5.191,8.074-6.469c9.243-3.094,12.536-8.72,11.802-18.348
		C317.296,314.082,316.689,311.521,316.15,308.218 M253.438,280.913c0.097,2.145,0.037,4.795,0.378,7.393
		c0.508,3.849,2.045,7.448,6.606,7.025c3.967-0.367,4.982-3.785,4.947-7.367c-0.025-2.632,0-5.276-0.252-7.89
		c-0.699-7.274-3.109-10.928-6.909-10.073C252.343,271.323,253.702,276.318,253.438,280.913 M303.753,274.017h-0.513
		c0-2.307,0.522-4.779-0.142-6.877c-0.704-2.225-2.176-5.342-3.95-5.852c-3.425-0.984-5.754,1.96-5.744,5.143
		c0.021,5.861,0.578,11.76,1.502,17.55c0.215,1.351,3.183,3.538,4.197,3.211c1.823-0.587,3.965-2.561,4.454-4.365
		C304.302,280.074,303.753,276.971,303.753,274.017"/>
	<path clip-path="url(#SVGID_2_)" fill="#FFFFFF" d="M240.004,606.768c-10.149-0.992-18.98-2.432-27.83-2.561
		c-8.916-0.129-17.851,1.042-28.141,1.737c-3.716-47.921-7.474-96.391-11.334-146.164c27.644,9.671,53.206,22.475,83.633,19.794
		C248.562,523.055,247.557,565.628,240.004,606.768"/>
	<path clip-path="url(#SVGID_2_)" fill="#FFFFFF" d="M336.153,608.823c-16.922,1.207-34.366,2.449-53.276,3.799
		c-2.005-44.2-4.697-87.456-4.997-131.687c23.585-2.371,45.274-9.07,67.023-20.599C339.716,510.418,345.287,559.661,336.153,608.823
		"/>
	<path clip-path="url(#SVGID_2_)" fill="#FFFFFF" d="M491.854,298.028c5.149,1.062,10.004,2.063,16.383,3.38
		c-4.22,7.763-7.851,15.417-12.358,22.514c-7.129,11.225-14.858,22.067-22.307,33.09c-8.55,12.653-16.963,25.399-25.659,37.95
		c-3.1,4.475-6.856,8.497-10.314,12.725c-0.609-0.352-1.222-0.705-1.833-1.058c0.958-8.776,1.769-17.572,3.005-26.307
		c0.237-1.677,2.075-3.186,3.317-4.648c3.22-3.793,7.114-7.152,9.688-11.333C465.176,342.58,478.25,320.615,491.854,298.028"/>
	<path clip-path="url(#SVGID_2_)" fill="#FFFFFF" d="M78.09,420.621c-20.762-29.879-41.524-59.758-63.148-90.878
		c7.453,0,13.229-0.223,18.967,0.141c1.654,0.104,3.674,1.552,4.719,2.976c6.882,9.372,13.475,18.958,20.302,28.372
		c4.659,6.426,9.702,12.576,14.263,19.067c2.213,3.151,4.877,6.662,5.316,10.256c1.162,9.525,1.223,19.184,1.722,28.789
		C79.518,419.769,78.805,420.194,78.09,420.621"/>
	<path clip-path="url(#SVGID_2_)" fill="#FFFFFF" d="M271.81,376.553h10.209c0.557,8.176,0.983,16.034,1.676,23.871
		c0.261,2.945,0.641,6.072,1.892,8.673c0.84,1.743,3.395,3.83,5.021,3.703c1.712-0.134,3.605-2.491,4.712-4.309
		c0.753-1.239,0.502-3.24,0.336-4.861c-0.95-9.229-2.009-18.447-3.178-28.998c3.178-0.647,6.547-1.334,10.575-2.155
		c5.14,18.868,5.464,37.016-1.663,54.983c-1.941,4.895-5.017,8.821-10.798,8.942c-5.78,0.121-10.385-2.337-12.782-7.808
		c-1.456-3.318-3.183-6.79-3.472-10.302C273.229,404.781,272.651,391.227,271.81,376.553"/>
	<path clip-path="url(#SVGID_2_)" fill="#FFFFFF" d="M8.732,260.434c7.28-10.852,15.072-19.225,24.504-25.768
		c6.687-4.639,13.515-4.567,21.589-1.798C54.261,247.273,30.759,262.098,8.732,260.434"/>
	<path clip-path="url(#SVGID_2_)" fill="#FFFFFF" d="M57.374,264.681c-1.433,2.021-1.926,3.495-2.908,3.984
		c-10.31,5.134-20.679,10.151-31.092,15.071c-1.111,0.524-2.609,0.292-3.929,0.303c-3.676,0.035-7.68,0.346-8.597-4.537
		c-0.749-3.984,2.143-5.946,5.098-7.619C25.102,266.7,45.155,263.023,57.374,264.681"/>
	<path clip-path="url(#SVGID_2_)" fill="#FFFFFF" d="M484.897,241.662c3.366-1.864,5.766-4.283,8.235-4.357
		c7.933-0.238,16.036-0.396,23.773,1.041c3.478,0.646,6.242,5.144,8.958,7.562c-1.401,5.281-4.556,5.782-8.013,5.964
		C503.599,252.62,493.396,249.809,484.897,241.662"/>
	<path clip-path="url(#SVGID_2_)" fill="#FFFFFF" d="M27.495,321.242c-3.215-0.555-8.482-1.176-13.586-2.452
		c-3.073-0.77-5.281-3.166-4.472-6.707c0.788-3.447,3.477-5.06,6.796-4.097c6.317,1.832,12.422,0.791,18.668-0.207
		c2.075-0.331,4.776,0.218,6.479,1.394c1.952,1.347,4.77,4.619,4.275,5.674c-1.049,2.235-3.773,4.259-6.244,5.1
		C36.359,320.988,32.867,320.74,27.495,321.242"/>
	<path clip-path="url(#SVGID_2_)" fill="#FFFFFF" d="M519.374,278.365c2.129,8.121,1.452,10.144-4.58,11.798
		c-7.981,2.189-15.644,1.572-22.487-3.573C495.835,277.494,496.804,277.205,519.374,278.365"/>
	<path clip-path="url(#SVGID_2_)" fill="#FFFFFF" d="M11.272,295.756c3.7-1.587,5.531-2.614,7.495-3.167
		c5.025-1.412,10.366-2.009,15.107-4.04c6.875-2.946,12.658-1.16,18.777,1.937C45.825,298.928,24.448,302.23,11.272,295.756"/>
	<path clip-path="url(#SVGID_2_)" fill="#FFFFFF" d="M522.005,226.276c-7.675,4.56-15.48,1.47-22.912,0.889
		c-4.218-0.33-8.406-2.13-9.17-7.404C500.593,212.321,513.015,214.584,522.005,226.276"/>
	<path clip-path="url(#SVGID_2_)" fill="#FFFFFF" d="M13.267,241.333c-5.318-16.166-3.267-24.165,7.789-28.295
		c1.665,4.711,3.327,9.411,5.188,14.674C21.972,232.196,17.79,236.585,13.267,241.333"/>
	<path clip-path="url(#SVGID_2_)" fill="#FFFFFF" d="M521.777,264.926c-5.773,6.625-18.846,6.433-31.333-0.507
		c0.143-4.331,3.5-3.96,6.346-4.273C507.74,258.94,517.133,260.746,521.777,264.926"/>
	<path clip-path="url(#SVGID_2_)" fill="#FFFFFF" d="M513.017,184.685c5.645,7.984,4.23,15.667,4.668,24.215
		c-3.656-0.775-6.635-1.404-9.732-2.061C506.558,198.788,505.821,191.504,513.017,184.685"/>
	<path clip-path="url(#SVGID_2_)" d="M316.151,308.218c0.538,3.303,1.145,5.863,1.343,8.455c0.732,9.628-2.561,15.254-11.802,18.348
		c-3.82,1.278-5.871,3.31-8.074,6.468c-2.791,4-6.466,7.618-10.409,10.519c-5.104,3.753-9.151,2.661-12.626-2.581
		c-1.274-1.921-2.139-4.137-3.018-6.288c-0.755-1.844-1.265-3.787-2.076-6.286c-10.949-0.779-18.445-5.903-18.609-18.733
		c-11.366,1.273-21.509-0.927-31.077-6.324c-21.336-12.035-25.013-30.815-16.769-52.302c3.574-9.314,11.797-13.841,21.418-16.309
		c11.111-2.85,21.912-2.264,32.249,2.185c4.069,1.75,7.642,5.2,10.713,8.544c2.323,2.532,3.018,6.583-0.506,8.702
		c-1.394,0.838-5.03-0.449-6.667-1.883c-9.718-8.52-20.662-8.724-32.801-7.05c-19.018,2.622-22.724,31.714-11.404,41.691
		c10.481,9.24,25.567,17.127,41.007,8.541c2.891-1.608,6.296-3.363,8.794,0.567c2.087,3.286,2.904,6.725-0.805,9.786
		c-1.245,1.027-2.315,2.447-3.03,3.901c-2.179,4.424,0.327,7.951,5.346,7.728c0.331-0.015,0.658-0.109,0.989-0.149
		c11.021-1.342,10.945-1.335,11.877,10.247c0.178,2.206,1.229,4.342,2.007,6.949c6.325-2.151,8.369-6.815,9.485-12.138
		c2.142-10.229,2.465-10.399,11.838-5.469c5.906-6.305,5.496-9.515-1.253-13.44c-2.072-1.205-4.992-3.487-4.924-5.171
		c0.076-1.918,2.776-4.188,4.856-5.446c2.19-1.326,5.003-1.604,7.526-2.397c6.34-1.993,12.819-3.652,18.981-6.101
		c18.422-7.315,27.553-39.519,13.147-55.516c-13.853-15.384-40.455-13.065-51.486,5.187c-2.396,3.967-3.726,8.582-6.155,12.525
		c-1.199,1.946-3.785,3.04-5.742,4.519c-1.511-2.326-3.502-4.49-4.36-7.036c-0.552-1.641,0.344-3.913,0.953-5.783
		c9.153-28.051,39.283-36.633,59.66-29.595c14.942,5.161,27.999,23.875,26.969,39.576c-0.368,5.623-1.096,11.329-2.564,16.752
		c-4.104,15.146-13.074,26.02-28.649,30.559C326.036,305.273,321.579,306.611,316.151,308.218"/>
	<path clip-path="url(#SVGID_2_)" d="M253.438,280.914c0.264-4.596-1.096-9.591,4.771-10.912c3.799-0.856,6.209,2.799,6.909,10.072
		c0.252,2.614,0.226,5.259,0.252,7.891c0.035,3.582-0.981,7-4.948,7.367c-4.56,0.423-6.097-3.177-6.605-7.025
		C253.475,285.708,253.536,283.059,253.438,280.914"/>
	<path clip-path="url(#SVGID_2_)" d="M303.753,274.017c0,2.954,0.549,6.057-0.195,8.81c-0.489,1.804-2.631,3.778-4.454,4.365
		c-1.015,0.327-3.982-1.86-4.197-3.211c-0.924-5.79-1.481-11.689-1.502-17.55c-0.01-3.183,2.319-6.127,5.744-5.143
		c1.774,0.51,3.246,3.627,3.95,5.852C303.763,269.238,303.582,274.017,303.753,274.017"/>
</g>
</svg>
