<?xml version="1.0" encoding="utf-8"?>
<!-- Generator: Adobe Illustrator 16.0.3, SVG Export Plug-In . SVG Version: 6.00 Build 0)  -->
<!DOCTYPE svg PUBLIC "-//W3C//DTD SVG 1.1//EN" "http://www.w3.org/Graphics/SVG/1.1/DTD/svg11.dtd">
<svg version="1.1" id="Layer_1" xmlns="http://www.w3.org/2000/svg" xmlns:xlink="http://www.w3.org/1999/xlink" x="0px" y="0px"
	 width="454.383px" height="890.219px" viewBox="0 0 454.383 890.219" enable-background="new 0 0 454.383 890.219"
	 xml:space="preserve">
<g>
	<defs>
		<rect id="SVGID_1_" width="454.383" height="890.219"/>
	</defs>
	<clipPath id="SVGID_2_">
		<use xlink:href="#SVGID_1_"  overflow="visible"/>
	</clipPath>
	<path clip-path="url(#SVGID_2_)" d="M99.983,812.036c-1.971-15.225-4.032-29.715-5.682-44.253
		c-1.952-17.204-3.373-34.469-5.343-51.669c-2.462-21.498-5.528-42.931-7.797-64.446c-1.57-14.896-2.244-29.887-3.295-44.838
		c-0.276-3.932,0.071-7.775-3.987-10.653c-1.622-1.149-1.946-4.591-2.225-7.061c-0.362-3.203-0.088-6.477-0.088-10.151
		c-3.079,0.722-5.29,1.467-7.558,1.731c-7.715,0.897-14.555-0.761-19.682-7.15c-8.575-10.685-15.382-21.954-11.646-36.956
		c-3.09-0.969-5.67-1.482-7.986-2.561c-6.303-2.938-12.917-5.491-18.616-9.362c-6.433-4.37-7.375-8.685-4.622-15.569
		c5.808-14.514,11.869-28.928,17.906-43.35c11.169-26.678,22.395-53.333,33.495-79.754c-3.493-4.677-6.264-8.366-9.013-12.071
		c-10.134-13.657-10.145-29.921-11.579-45.759c-0.508-5.598-0.082-11.282-0.082-16.71c-18.344-8.629-25.052-17.639-23.35-30.966
		c1.381-10.813,10.992-19.247,26.634-22.906c0-1.743,0.239-3.691-0.035-5.564c-4.775-32.609-9.911-65.17-14.277-97.834
		c-1.538-11.503-2.985-23.5-1.392-34.839c3.273-23.285,14.048-42.139,37.729-51.003c9.34-3.497,18.5-7.497,27.632-11.516
		c2.002-0.881,3.725-2.65,5.24-4.316c1.782-1.962,3.408-4.136,4.737-6.429c6.128-10.575,14.9-15.889,27.774-13.686
		c6.593-11.93,14.228-22.341,30.785-18.779c0.431-0.607,0.973-1.44,1.584-2.218c10.187-12.986,24.624-15.226,37.38-4.913
		c4.383,3.543,7.527,3.99,12.416,1.721c3.473-1.611,7.703-2.076,11.614-2.162c9.083-0.2,13.562,3.536,15.566,12.21
		c0.587,2.545,1.049,5.118,1.542,7.551c25.27,1.262,25.131,7.716,25.045,24.468c18.56,1.838,28.083,9.848,26.815,26.252
		c2.44,0.635,4.961,1.313,7.495,1.945c9.872,2.459,18.714,6.896,26.378,13.632c9.444,8.301,13.764,19.15,12.324,31.199
		c-1.492,12.492-4.538,24.883-7.855,37.059c-7.349,26.97-15.294,53.779-23.018,80.728c6.15,1.778,12.204,3.181,18.002,5.286
		c8.402,3.052,13.732,9.426,16.18,17.835c4.18,14.36-3.516,26.868-18.2,30.241c-2.854,0.655-5.728,1.225-8.184,1.748
		c-1.725,11.465-2.531,22.481-5.209,33.021c-2.681,10.556-7.232,20.637-11.371,32.048c13.188,12.724,26.562,26.505,44.588,36.797
		c0.948-3.81,2.158-7.167,2.585-10.621c3.767-30.468,10.65-60.312,17.634-90.147c0.647-2.763,0.821-6.014,0.009-8.67
		c-2.03-6.634-0.854-12.641,2.731-18.147c7.39-11.346,12.582-23.413,13.951-37.022c0.261-2.59,1.332-5.143,2.284-7.615
		c3.439-8.918,5.315-9.864,15.336-7.836c0.715-0.915,1.456-2.001,2.332-2.962c5.333-5.851,10.005-6.14,14.875-0.098
		c3.947,4.898,6.927,10.565,10.535,15.753c2.35,3.378,5.057,6.508,7.604,9.751c0.624-0.388,1.248-0.776,1.873-1.163
		c-0.528-1.54-0.706-3.35-1.65-4.564c-2.235-2.871-5.354-5.15-7.18-8.224c-4.014-6.758-0.959-12.788,6.639-14.028
		c9.106-1.486,24.515,6.567,27.318,15.108c1.159,3.531,0.882,8.017-0.149,11.671c-1.613,5.72-4.387,11.118-6.753,16.616
		c-0.518,1.201-2.12,2.348-1.984,3.352c1.174,8.655-4.399,13.956-9.23,19.765c-3.353,4.032-5.386,8.174-5.315,14.18
		c0.116,10.095-16.077,24.776-27.081,26.334c-14.379,2.037-14.392,2.035-17.455,15.941c-3.867,17.554-6.903,35.34-11.787,52.604
		c-5.246,18.546-11.86,36.737-18.566,54.827c-4.527,12.217-13.715,19.121-26.685,19.411c-5.255,12.123-10.36,24.03-15.602,35.879
		c-1.07,2.419-2.491,4.729-4.031,6.889c-3.712,5.209-4.935,5.18-10.718,2.438c-11.406-5.409-19.695-14.614-28.758-22.901
		c-1.867-1.707-3.803-3.34-6.831-5.992c0.954,17.748,1.665,33.917,2.735,50.062c1.102,16.622,2.703,33.211,3.717,49.837
		c0.184,3.013-0.479,7.854-2.366,8.882c-5.533,3.01-4.768,7.383-4.404,11.954c1.366,17.237,3.506,34.449,4.014,51.71
		c0.508,17.258,0.024,34.605-1.121,51.84c-2.077,31.23-4.975,62.405-7.485,93.605c-0.076,0.949,0.349,1.939,0.516,2.794
		c9.127,4.261,18.292,8.132,27.078,12.727c19.332,10.115,29.03,26.703,31.176,48.076c0.1,0.996,0.154,1.995,0.237,2.991
		c1.154,13.945-0.271,15.753-14.708,17.148c-22.062,2.135-44.026,0.563-65.397-4.836c-10.825-2.734-21.286-7.799-31.148-13.203
		c-9.58-5.25-14.558-14.465-14.904-25.584c-0.155-4.971,0.519-9.969,0.832-14.953c0.304-4.849,1.28-9.365-2.613-13.979
		c-2.149-2.545-1.757-7.604-1.759-11.531c-0.011-21.655,0.601-43.315,0.249-64.964c-0.421-25.962-1.587-51.912-2.497-77.866
		c-0.028-0.814-0.782-1.604-1.754-3.479c-1.321,2.218-2.758,3.615-2.997,5.194c-2.091,13.808-4.583,27.594-5.775,41.486
		c-2.278,26.538-3.968,53.132-5.535,79.724c-0.978,16.617-1.399,33.271-1.772,49.914c-0.056,2.482,1.743,4.953,2.307,7.513
		c1.709,7.74,3.304,15.508,4.804,23.293c0.974,5.052-1.295,8.993-4.605,12.601c-19.764,21.544-55.995,27.389-80.672,12.088
		c-5.972-3.703-10.31-10.187-14.996-15.732c-1.335-1.58-1.959-4.443-1.707-6.575c1.699-14.354,3.978-28.524,16.736-38.097
		C92.588,818.441,96.052,815.305,99.983,812.036 M288.899,262.754c-3.648-3.068-6.373-6.119-9.741-8.045
		c-7.97-4.556-9.144-11.253-8-19.581c3.528-25.717,6.739-51.48,9.972-77.238c0.692-5.52,0.957-11.096,1.492-17.538
		c-21.327-7.599-41.819-14.9-62.022-22.098c-3.061,3.683-5.326,6.127-7.273,8.803c-5.663,7.785-13.485,11.744-22.8,12.911
		c-6.601,0.826-13.243,1.361-19.879,1.852c-6.664,0.493-12.536-1.617-17.333-6.256c-6.188-5.984-12.219-12.127-18.375-18.258
		c-27.098,5.052-53.719,10.705-79.042,23.354c0.287,4.939,0.394,9.891,0.899,14.802c1.156,11.26,3.068,22.471,3.649,33.754
		c0.907,17.627,0.473,35.328,1.565,52.939c0.692,11.158-5.761,18.826-11.08,27.039c-1.333,2.058-5.781,2.443-8.897,2.872
		c-1.81,0.249-3.786-1.149-5.743-1.452c-6.584-1.022-13.622,3.463-15.611,9.792c-1.575,5.008,1.493,12.707,6.496,15.559
		c1.983,1.13,4.317,1.685,6.536,2.353c8.191,2.466,8.296,2.501,9.157,10.746c0.31,2.977,0.203,6.002,0.551,8.973
		c1.51,12.877,1.959,26.02,4.956,38.549c4.638,19.388,23.693,38.738,49.155,38.629c-1.244-3.599-2.498-6.947-3.558-10.355
		c-2.371-7.62-4.979-15.188-6.87-22.929c-2.147-8.798-0.087-11.943,8.154-15.133c2.682-1.038,5.131-2.68,7.95-4.188
		c1.05,0.377,2.334,0.715,3.512,1.277c23.207,11.103,47.907,13.727,73.115,11.977c13.613-0.946,27.07-3.692,39.67-9.431
		c9.779-4.454,19.118-9.519,25.288-18.827c3.681-5.554,7.715-10.913,10.929-16.725c3.428-6.196,7.627-12.305,7.433-18.953
		c-5.281-0.896-9.764-1.658-15.305-2.599c-12.656,11.937-28.938,15.247-45.546,11.332c-4.374,5.799-7.278,11.783-12,15.371
		c-5.923,4.499-3.951,12.666-9.66,16.717c-1.072,0.761-1.842,1.938-2.888,2.747c-6.531,5.048-13.697,3.634-17.53-3.686
		c-1.806-3.449-3.002-7.217-4.391-10.635c-13.336-0.504-16.082-3.435-15.783-16.357c0.051-2.21,0.193-4.417,0.365-8.235
		c-18.12,5.321-32.988-1.298-47.241-9.622c-17.25-10.073-26.766-25.086-24.858-45.417c1.019-10.853,3.768-21.626,6.614-32.198
		c1.935-7.188,6.561-13.282,12.961-17.267c22.169-13.809,44.984-17.77,68.691-3.543c5.411,3.248,9.139,7.728,10.592,13.882
		c0.655,2.776,0.242,5.346-3.835,6.397c-0.918-0.819-2.287-1.695-3.208-2.912c-10.256-13.55-29.092-19.944-45.193-14.878
		c-5.692,1.79-11.119,4.434-16.637,6.76c-7.236,3.049-12.151,8.527-13.986,15.968c-2.141,8.687-3.904,17.568-4.693,26.464
		c-1.45,16.345,6.315,27.971,20.14,36.155c13.424,7.949,27.401,11.19,42.986,7.646c8.699-1.978,11.822,1.848,9.616,10.338
		c-0.664,2.554-2.412,4.882-2.787,7.441c-0.479,3.283-0.073,6.697-0.046,10.267c2.458-0.194,3.466-0.111,4.376-0.372
		c9.891-2.831,9.859-2.841,11.616,7.599c0.643,3.823,0.804,7.992,5.207,9.743c5.797-2.734,6.07-7.728,6.341-12.811
		c0.197-3.699,0.478-6.946,5.5-8.042c7.952-1.734,9.499-6.111,5.844-13.833c-3.366-7.109-1.848-9.677,5.828-9.208
		c2.56,0.156,5.164,1.123,7.563,2.149c18.917,8.09,38.84-0.26,46.876-19.375c7.717-18.347,6.397-36.096-1.116-54.277
		c-5.269-12.748-25.324-26.224-42.355-18.845c-7.205,3.122-13.767,7.745-20.57,11.773c-1.856,1.099-3.524,2.516-5.757,4.136
		c-3.773-6.69,0.543-10.747,4.043-13.175c7.033-4.879,14.632-9.341,22.606-12.382c18.44-7.031,41.425,1.622,51.069,18.88
		c11.51,20.596,14.107,42.055,4.75,64.305c-1.504,3.576-2.856,7.216-4.595,11.631c5.814-1.621,10.768-3.261,15.838-4.353
		c6.902-1.486,13.232,0.303,18.837,4.505c2.619,1.963,4.123,4.612,2.314,7.789c-1.859,3.264-4.864,2.976-7.865,1.683
		c-2.829-1.218-5.623-2.517-9.106-4.085c-1.685,23.314-13.825,40.34-27.222,55.91c-14.208,16.513-35.162,21.461-56.751,26.244
		c1.95,1.815,3.213,2.759,4.191,3.94c4.512,5.45,4.154,10.931-1.082,15.772c-1.702,1.575-3.814,2.711-5.496,4.302
		c-3.293,3.118-4.112,6.614-1.168,10.509c3.839,0.485,7.453,1.29,11.076,1.338c14.835,0.197,29.475-1.174,41.701-10.652
		c9.729-7.542,18.907-15.8,28.248-23.837c7.469-6.427,12.705-14.451,16.457-23.527c4.98-12.046,9.189-24.234,9.807-37.462
		c0.6-12.858,2.377-24.401,19.29-26.358c7.8-0.902,10.291-9.326,6.972-16.667c-5.019-11.099-19.92-14.252-29.032-6.16
		C292.547,259.934,291.222,260.899,288.899,262.754 M251.949,592.656c-7.563,0-14.479-0.285-21.359,0.086
		c-5.968,0.319-11.878,1.718-17.846,2.047c-15.285,0.844-30.671,0.574-45.862,2.193c-20.598,2.196-41.082,3.429-61.742,1.239
		c-6.091-0.645-12.308-0.1-18.43-0.1c-0.065,21.887,18.866,195.503,22.79,209.55c16.7-3.164,33.448-5.498,49.421,8.22
		c0-11.288-0.513-20.583,0.1-29.804c1.589-23.902,3.787-47.764,5.529-71.658c1.573-21.577,2.777-43.182,7.801-64.343
		c0.768-3.233,0.654-6.755,4.825-7.803c7.069-1.777,13.487,1.665,15.446,8.826c0.954,3.487,1.067,7.233,1.327,10.881
		c2.886,40.549,3.585,81.152,2.941,121.789c-0.094,5.944-0.013,11.893-0.013,18.086c18.873,7.452,35.908,2.068,52.616-6.628
		c2.696-33.461,5.573-66.95,8.045-100.47C260.046,660.755,255.431,627.131,251.949,592.656 M96.046,354.593
		c-0.343,12.708,3.13,22.275,6.891,31.83c3.401,8.639,6.416,17.429,9.712,26.111c2.144,5.645,1.746,11.091-0.801,16.462
		c-9.409,19.841-18.633,39.772-28.307,59.482c-6.294,12.822-13.83,25.06-19.649,38.078c-2.733,6.116-6.281,8.991-12.443,9.564
		c-3.535,0.33-7.073,0.623-10.462,0.918c-0.607,13.462,1.315,19.678,8.527,28.726c6.517,8.178,12.774,9.379,20.328,2.394
		c4.757-4.401,8.819-10.056,11.699-15.886c7.363-14.909,13.496-30.428,20.856-45.339c8.24-16.692,17.225-33.022,26.049-49.422
		c1.38-2.562,3.569-4.711,5.489-6.96c4.601-5.388,11.436-4.664,17.425-6.198c4.681-1.2,9.97-1.227,12.183-7.028
		c-1.028-0.222-1.67-0.449-2.322-0.486c-3.014-0.17-6.796-0.104-6.236-4.231c0.215-1.583,3.682-3.39,5.934-3.886
		c4.147-0.915,8.384-1.138,10.825-5.971c-4.72,0.229-9.054,0.937-13.238,0.425c-2.038-0.249-3.797-2.777-5.682-4.273
		c1.688-1.356,3.187-3.226,5.112-3.929c2.104-0.768,4.641-0.24,6.921-0.651c7.618-1.372,11.061-5.667,10.887-13.404
		c-5.678,0.61-11.382,1.223-16.834,1.808c-1.92-6.071,1.731-6.971,4.774-8.171c6.182-2.437,12.548-4.453,18.568-7.229
		c3.721-1.713,7.617-3.908,8.788-9.854c-4.18,0-7.92-0.831-11.108,0.144c-13.95,4.265-27.853,8.749-41.553,13.753
		c-10.454,3.821-13.073,3.049-18.52-6.421c-4.303-7.482-9.021-14.76-14.065-21.761C103.647,360.211,100.196,358.173,96.046,354.593
		 M393.055,284.722c-6.336-4.827-6.867-10.74-2.662-17.423c0.648-1.031,0.149-2.895-0.063-4.338
		c-0.508-3.445-1.515-6.851-1.684-10.304c-0.357-7.277-0.138-14.582-0.534-21.854c-0.104-1.907-1.604-3.737-3.334-7.501
		c-1.325,3.786-2.288,5.465-2.472,7.225c-1.647,15.858-6.685,30.388-15.417,43.846c-2.087,3.217-1.763,8.141-2.094,12.316
		c-0.414,5.223,0.342,10.62-0.648,15.7c-2.355,12.076-5.883,23.928-8.15,36.019c-7.053,37.61-14.207,75.182-25.174,111.91
		c-0.211,0.705,0.502,1.688,0.779,2.526c10.532-2.854,12.757-4.526,16.625-14.108c13.016-32.227,21.347-65.762,27.747-99.844
		c1.161-6.18,3.319-12.168,4.941-18.265c1.369-5.14,4.587-7.767,9.947-8.034c2.305-0.115,4.59-1.203,6.869-1.155
		c10.854,0.228,16.74-6.98,22.336-14.625c0.94-1.286,2.335-3.539,1.851-4.366c-4.1-6.989,0.457-10.383,4.625-15.071
		c2.866-3.222,3.902-8.069,8.045-10.826c1.05-0.698,1.459-3.914,0.787-5.313c-1.246-2.594-3.194-5.068-5.398-6.947
		c-8.662-7.377-16.644-15.242-22.097-25.427c-1.589-2.967-4.018-5.484-6.95-9.389c-0.776,3.26-1.326,4.499-1.327,5.739
		c-0.012,11.527,4.662,20.546,14.474,26.815c4.088,2.612,9.165,4.627,7.669,12.198c-9.781,0.237-21.553-2.253-25.849,12.692
		c4.365,0.302,7.884,0.687,11.407,0.75c3.72,0.067,7.938-2.223,10.901,2.925c-2.092,3.724-5.464,5.075-9.533,6.014
		c-3.619,0.836-7.599,1.864-9.947,7.161c5.701,0.354,10.435,0.648,15.087,0.937c1.51,4.808-0.816,6.859-4.477,7.569
		c-6.485,1.259-12.832,0.643-17.674-4.318C387.487,293.682,390.418,289.358,393.055,284.722 M115.936,360.206
		c5.427,9.204,10.212,17.318,14.825,25.139c12.048-4.886,23.213-9.414,34.378-13.941c-8.347-2.703-16.554-3.057-24.543-4.569
		C132.611,365.325,124.844,362.656,115.936,360.206 M425.298,221.032c2.389,2.915,3.867,5.424,5.98,7.163
		c5.461,4.492,8.161,9.238,4.128,16.233c-2.582,4.479,1.258,5.141,4.608,6.864c2.989-6.974,5.659-13.206,8.311-19.39
		C441.689,225.692,436.542,218.836,425.298,221.032 M399.328,249.808c-0.646,0.141-1.292,0.281-1.938,0.422v8.598
		c2.802-1.064,4.702-1.786,7.21-2.738C402.518,253.61,400.923,251.708,399.328,249.808"/>
	<path clip-path="url(#SVGID_2_)" d="M422.027,176.094c3.051,0.373,4.95,2.598,3.461,5.393c-3.247,6.094-7.081,11.91-11.138,17.503
		c-0.553,0.76-4.864,0.288-5.556-0.805C405.654,193.227,415.813,176.311,422.027,176.094"/>
	<path clip-path="url(#SVGID_2_)" d="M354.48,187.32c2.275,1.386,3.664,1.812,4.397,2.749c3.635,4.648,7.288,9.309,10.483,14.256
		c0.797,1.234,0.406,4.853-0.287,5.114c-1.812,0.68-5.183,0.95-6.004-0.109c-3.987-5.144-7.54-10.667-10.739-16.342
		C351.755,191.966,353.559,189.601,354.48,187.32"/>
	<path clip-path="url(#SVGID_2_)" d="M392.169,186.391c-0.224,5.273,0.511,9.989-4.404,10.251c-4.592,0.245-3.948-4.357-4.254-7.483
		c-0.353-3.597-0.852-7.256-0.495-10.808c0.141-1.39,2.256-3.042,3.824-3.623c0.729-0.271,2.97,1.515,3.362,2.741
		C391.295,180.884,391.78,184.495,392.169,186.391"/>
	<path clip-path="url(#SVGID_2_)" fill="#FFFFFF" d="M288.899,262.754c2.323-1.856,3.647-2.82,4.867-3.903
		c9.111-8.092,24.013-4.94,29.031,6.16c3.319,7.341,0.828,15.764-6.972,16.667c-16.913,1.957-18.69,13.5-19.29,26.357
		c-0.617,13.229-4.826,25.416-9.807,37.463c-3.752,9.075-8.988,17.1-16.457,23.526c-9.34,8.038-18.52,16.295-28.248,23.837
		c-12.227,9.479-26.866,10.85-41.701,10.653c-3.624-0.048-7.237-0.854-11.076-1.338c-2.945-3.896-2.125-7.392,1.168-10.509
		c1.682-1.592,3.794-2.728,5.496-4.303c5.236-4.841,5.594-10.321,1.082-15.771c-0.978-1.181-2.241-2.125-4.191-3.941
		c21.59-4.783,42.542-9.73,56.75-26.244c13.396-15.569,25.538-32.595,27.223-55.909c3.483,1.567,6.277,2.866,9.106,4.085
		c3.001,1.293,6.005,1.581,7.865-1.684c1.809-3.176,0.305-5.826-2.313-7.789c-5.605-4.202-11.936-5.99-18.838-4.505
		c-5.07,1.092-10.023,2.733-15.838,4.354c1.738-4.415,3.091-8.056,4.595-11.632c9.357-22.25,6.76-43.709-4.75-64.305
		c-9.645-17.257-32.63-25.911-51.07-18.879c-7.973,3.041-15.572,7.503-22.605,12.381c-3.5,2.429-7.816,6.486-4.043,13.175
		c2.233-1.619,3.901-3.036,5.757-4.136c6.803-4.028,13.365-8.65,20.57-11.772c17.031-7.379,37.086,6.097,42.355,18.845
		c7.514,18.18,8.833,35.929,1.117,54.277c-8.037,19.114-27.96,27.465-46.877,19.375c-2.4-1.026-5.003-1.993-7.564-2.149
		c-7.675-0.469-9.193,2.098-5.827,9.208c3.655,7.721,2.108,12.098-5.844,13.833c-5.022,1.095-5.303,4.342-5.5,8.042
		c-0.271,5.083-0.544,10.077-6.341,12.81c-4.403-1.751-4.564-5.92-5.207-9.742c-1.757-10.44-1.725-10.431-11.617-7.6
		c-0.909,0.261-1.917,0.178-4.375,0.373c-0.027-3.571-0.434-6.984,0.046-10.267c0.374-2.56,2.123-4.888,2.787-7.442
		c2.206-8.49-0.917-12.315-9.616-10.337c-15.585,3.544-29.562,0.302-42.987-7.646c-13.824-8.184-21.589-19.81-20.139-36.155
		c0.789-8.897,2.552-17.778,4.693-26.464c1.835-7.441,6.75-12.919,13.986-15.969c5.518-2.325,10.945-4.97,16.637-6.76
		c16.101-5.065,34.937,1.329,45.193,14.878c0.921,1.217,2.29,2.094,3.208,2.912c4.077-1.05,4.49-3.621,3.835-6.396
		c-1.453-6.154-5.181-10.635-10.592-13.883c-23.707-14.226-46.522-10.265-68.692,3.543c-6.399,3.985-11.026,10.079-12.96,17.268
		c-2.846,10.572-5.595,21.344-6.614,32.198c-1.909,20.331,7.608,35.344,24.858,45.417c14.253,8.323,29.121,14.942,47.241,9.622
		c-0.173,3.817-0.314,6.024-0.365,8.234c-0.299,12.922,2.447,15.854,15.783,16.358c1.389,3.418,2.585,7.185,4.391,10.635
		c3.832,7.32,10.998,8.734,17.53,3.685c1.046-0.808,1.816-1.985,2.888-2.746c5.709-4.052,3.737-12.219,9.66-16.718
		c4.722-3.588,7.625-9.571,12-15.371c16.608,3.915,32.89,0.606,45.547-11.331c5.541,0.941,10.022,1.702,15.304,2.599
		c0.195,6.647-4.005,12.757-7.433,18.953c-3.214,5.811-7.248,11.171-10.929,16.724c-6.17,9.309-15.51,14.374-25.288,18.828
		c-12.6,5.739-26.057,8.485-39.67,9.43c-25.208,1.75-49.908-0.874-73.116-11.976c-1.177-0.563-2.461-0.901-3.511-1.278
		c-2.82,1.508-5.268,3.151-7.95,4.189c-8.241,3.189-10.301,6.335-8.154,15.133c1.89,7.741,4.499,15.308,6.869,22.928
		c1.061,3.409,2.315,6.756,3.559,10.356c-25.462,0.108-44.518-19.241-49.155-38.629c-2.997-12.529-3.447-25.672-4.956-38.549
		c-0.348-2.972-0.241-5.996-0.552-8.973c-0.86-8.246-0.965-8.281-9.156-10.747c-2.219-0.668-4.553-1.222-6.536-2.352
		c-5.003-2.853-8.071-10.551-6.497-15.56c1.99-6.329,9.028-10.813,15.612-9.792c1.957,0.304,3.933,1.701,5.743,1.452
		c3.116-0.428,7.563-0.813,8.897-2.872c5.319-8.213,11.772-15.88,11.08-27.039c-1.092-17.61-0.658-35.311-1.565-52.938
		c-0.582-11.283-2.493-22.494-3.649-33.754c-0.505-4.911-0.612-9.863-0.899-14.803c25.323-12.648,51.944-18.302,79.042-23.353
		c6.155,6.131,12.187,12.274,18.375,18.257c4.797,4.639,10.669,6.75,17.333,6.256c6.636-0.491,13.278-1.025,19.879-1.851
		c9.315-1.167,17.137-5.126,22.8-12.911c1.947-2.676,4.212-5.12,7.273-8.803c20.203,7.197,40.695,14.499,62.022,22.098
		c-0.535,6.442-0.8,12.017-1.492,17.538c-3.232,25.757-6.443,51.52-9.973,77.238c-1.142,8.328,0.031,15.024,8.001,19.581
		C282.526,256.635,285.251,259.687,288.899,262.754 M159.611,236.318c-0.109-1.455-0.05-2.796-0.336-4.06
		c-0.673-2.971-1.652-5.914-5.353-6.136c-3.683-0.22-5.307,2.221-5.787,5.44c-0.728,4.865-1.531,9.75-1.733,14.65
		c-0.134,3.246,1.909,6.138,5.311,5.771c2.11-0.227,4.985-2.28,5.743-4.211C158.865,244.187,158.977,240.09,159.611,236.318
		 M213.281,237.876c-0.181-1.904,0.083-4.045-0.678-5.721c-0.715-1.573-2.532-3.725-3.826-3.699
		c-1.866,0.038-5.099,1.598-5.297,2.886c-0.776,5.046-0.87,10.258-0.546,15.366c0.073,1.14,2.876,2.931,4.413,2.921
		c1.531-0.01,3.837-1.598,4.404-3.042C212.797,243.923,212.819,240.857,213.281,237.876"/>
	<path clip-path="url(#SVGID_2_)" fill="#FFFFFF" d="M251.949,592.655c3.481,34.477,8.097,68.101,5.589,102.113
		c-2.472,33.521-5.349,67.008-8.045,100.469c-16.708,8.697-33.743,14.08-52.616,6.628c0-6.191-0.081-12.141,0.013-18.086
		c0.644-40.636-0.055-81.238-2.941-121.789c-0.26-3.646-0.373-7.393-1.327-10.881c-1.959-7.161-8.377-10.602-15.446-8.826
		c-4.171,1.05-4.057,4.57-4.825,7.805c-5.024,21.161-6.228,42.765-7.801,64.342c-1.742,23.894-3.94,47.756-5.529,71.659
		c-0.614,9.22-0.1,18.515-0.1,29.803c-15.973-13.717-32.722-11.383-49.421-8.219c-3.924-14.047-22.855-187.663-22.79-209.55
		c6.122,0,12.339-0.547,18.43,0.099c20.66,2.188,41.143,0.957,61.742-1.239c15.191-1.62,30.577-1.349,45.861-2.192
		c5.969-0.329,11.879-1.729,17.847-2.049C237.47,592.372,244.386,592.655,251.949,592.655"/>
	<path clip-path="url(#SVGID_2_)" fill="#FFFFFF" d="M96.046,354.593c4.15,3.58,7.601,5.618,9.748,8.596
		c5.044,7.001,9.762,14.279,14.064,21.76c5.447,9.471,8.067,10.243,18.521,6.422c13.7-5.005,27.603-9.488,41.553-13.754
		c3.188-0.974,6.928-0.143,11.108-0.143c-1.172,5.946-5.067,8.14-8.788,9.854c-6.02,2.776-12.387,4.792-18.568,7.229
		c-3.043,1.2-6.694,2.099-4.774,8.171c5.452-0.585,11.156-1.199,16.834-1.808c0.174,7.736-3.269,12.031-10.887,13.403
		c-2.28,0.412-4.817-0.116-6.921,0.652c-1.925,0.703-3.425,2.573-5.112,3.929c1.885,1.496,3.644,4.024,5.681,4.273
		c4.185,0.512,8.519-0.196,13.239-0.425c-2.442,4.833-6.678,5.056-10.825,5.971c-2.252,0.496-5.719,2.303-5.934,3.886
		c-0.561,4.127,3.222,4.061,6.235,4.231c0.653,0.037,1.295,0.264,2.323,0.485c-2.213,5.802-7.502,5.829-12.184,7.029
		c-5.988,1.534-12.823,0.81-17.424,6.198c-1.921,2.249-4.109,4.396-5.489,6.96c-8.824,16.399-17.81,32.729-26.049,49.423
		c-7.36,14.91-13.493,30.429-20.856,45.339c-2.88,5.83-6.942,11.483-11.7,15.884c-7.553,6.987-13.811,5.785-20.328-2.392
		c-7.212-9.049-9.134-15.265-8.526-28.727c3.389-0.296,6.927-0.589,10.461-0.918c6.162-0.573,9.711-3.448,12.444-9.563
		c5.819-13.02,13.355-25.257,19.649-38.078c9.674-19.71,18.898-39.643,28.306-59.483c2.548-5.371,2.946-10.817,0.802-16.463
		c-3.296-8.681-6.311-17.471-9.712-26.11C99.175,376.867,95.704,367.301,96.046,354.593"/>
	<path clip-path="url(#SVGID_2_)" fill="#FFFFFF" d="M393.055,284.722c-2.636,4.636-5.567,8.96-1.394,13.235
		c4.842,4.961,11.189,5.577,17.675,4.318c3.659-0.71,5.985-2.761,4.476-7.569c-4.653-0.289-9.386-0.583-15.086-0.937
		c2.348-5.297,6.327-6.325,9.947-7.161c4.068-0.939,7.44-2.29,9.532-6.014c-2.964-5.148-7.182-2.858-10.901-2.925
		c-3.524-0.063-7.042-0.448-11.407-0.75c4.295-14.945,16.068-12.455,25.849-12.692c1.496-7.571-3.581-9.586-7.669-12.198
		c-9.812-6.269-14.485-15.288-14.475-26.815c0.001-1.24,0.552-2.479,1.328-5.739c2.932,3.905,5.361,6.422,6.95,9.389
		c5.453,10.185,13.435,18.05,22.096,25.427c2.205,1.879,4.153,4.353,5.399,6.947c0.672,1.399,0.263,4.615-0.787,5.313
		c-4.143,2.757-5.18,7.604-8.044,10.826c-4.168,4.688-8.727,8.082-4.626,15.071c0.484,0.827-0.91,3.08-1.852,4.366
		c-5.595,7.645-11.481,14.853-22.335,14.625c-2.28-0.048-4.564,1.04-6.869,1.155c-5.36,0.267-8.579,2.894-9.946,8.034
		c-1.622,6.097-3.78,12.085-4.941,18.265c-6.401,34.082-14.732,67.617-27.748,99.844c-3.869,9.581-6.093,11.253-16.626,14.107
		c-0.277-0.839-0.99-1.82-0.779-2.526c10.968-36.729,18.122-74.3,25.176-111.91c2.267-12.091,5.795-23.943,8.149-36.019
		c0.991-5.08,0.234-10.477,0.648-15.7c0.331-4.175,0.008-9.099,2.094-12.316c8.732-13.458,13.77-27.988,15.417-43.846
		c0.184-1.76,1.146-3.439,2.471-7.225c1.732,3.764,3.23,5.594,3.334,7.501c0.398,7.272,0.179,14.577,0.534,21.854
		c0.17,3.453,1.177,6.859,1.686,10.304c0.213,1.443,0.712,3.307,0.062,4.338C386.187,273.982,386.719,279.895,393.055,284.722"/>
	<path clip-path="url(#SVGID_2_)" fill="#FFFFFF" d="M115.936,360.207c8.908,2.449,16.675,5.118,24.66,6.629
		c7.989,1.512,16.196,1.865,24.543,4.568c-11.164,4.528-22.329,9.056-34.378,13.942
		C126.148,377.523,121.363,369.409,115.936,360.207"/>
	<path clip-path="url(#SVGID_2_)" fill="#FFFFFF" d="M425.298,221.032c11.244-2.195,16.392,4.66,23.026,10.87
		c-2.65,6.185-5.32,12.416-8.31,19.391c-3.351-1.724-7.19-2.386-4.608-6.865c4.033-6.995,1.332-11.741-4.129-16.233
		C429.165,226.457,427.687,223.947,425.298,221.032"/>
	<path clip-path="url(#SVGID_2_)" d="M159.611,236.319c-0.633,3.771-0.746,7.867-2.155,11.454c-0.758,1.931-3.632,3.984-5.742,4.211
		c-3.402,0.366-5.446-2.525-5.312-5.771c0.203-4.901,1.006-9.786,1.733-14.651c0.481-3.219,2.104-5.659,5.787-5.439
		c3.702,0.221,4.68,3.165,5.353,6.135C159.562,233.521,159.502,234.864,159.611,236.319"/>
	<path clip-path="url(#SVGID_2_)" d="M213.281,237.876c-0.462,2.981-0.484,6.047-1.53,8.711c-0.567,1.444-2.873,3.032-4.404,3.042
		c-1.537,0.01-4.34-1.781-4.413-2.921c-0.324-5.108-0.23-10.32,0.546-15.366c0.198-1.288,3.431-2.848,5.297-2.886
		c1.294-0.026,3.111,2.126,3.826,3.699C213.364,233.832,213.1,235.972,213.281,237.876"/>
</g>
</svg>
